<mxfile host="app.diagrams.net" modified="2022-08-17T23:55:12.372Z" agent="5.0 (Windows NT 10.0; Win64; x64) AppleWebKit/537.36 (KHTML, like Gecko) Chrome/104.0.0.0 Safari/537.36" etag="FEvZ7bXBDnPXoQ5AUW0d" version="20.2.4" type="github" pages="5">
  <diagram id="gyJNP8I5i0HolDVTTsNV" name="Recruitment">
    <mxGraphModel dx="1422" dy="713" grid="0" gridSize="10" guides="1" tooltips="1" connect="1" arrows="1" fold="1" page="0" pageScale="1" pageWidth="827" pageHeight="1169" math="0" shadow="0">
      <root>
        <mxCell id="0" />
        <mxCell id="1" parent="0" />
        <mxCell id="9msUAY20r4PM0Jc_9Log-6" value="HR-Admin" style="swimlane;childLayout=stackLayout;resizeParent=1;resizeParentMax=0;horizontal=1;startSize=20;horizontalStack=0;hachureGap=4;fontFamily=Verdana;fontSize=20;strokeColor=#FF3399;fillColor=#FFFFFF;fontColor=#000000;" parent="1" vertex="1">
          <mxGeometry x="28" y="30" width="816" height="900" as="geometry" />
        </mxCell>
        <mxCell id="9msUAY20r4PM0Jc_9Log-7" value="Recruitments" style="swimlane;startSize=20;horizontal=0;hachureGap=4;fontFamily=Verdana;fontSize=20;fontColor=#000000;strokeColor=#FF3399;fillColor=#FFFFFF;swimlaneLine=1;labelBorderColor=none;" parent="9msUAY20r4PM0Jc_9Log-6" vertex="1">
          <mxGeometry y="20" width="816" height="880" as="geometry" />
        </mxCell>
        <mxCell id="9msUAY20r4PM0Jc_9Log-10" value="Start" style="rounded=1;whiteSpace=wrap;html=1;hachureGap=4;fontFamily=Verdana;fontSize=20;fontColor=#000000;strokeColor=#FF3399;fillColor=#FFFFFF;" parent="9msUAY20r4PM0Jc_9Log-7" vertex="1">
          <mxGeometry x="47" y="25" width="120" height="60" as="geometry" />
        </mxCell>
        <mxCell id="9msUAY20r4PM0Jc_9Log-14" value="Advertise for the jobs" style="whiteSpace=wrap;html=1;fontSize=20;fontFamily=Verdana;fillColor=#FFFFFF;strokeColor=#FF3399;fontColor=#000000;rounded=1;hachureGap=4;" parent="9msUAY20r4PM0Jc_9Log-7" vertex="1">
          <mxGeometry x="385" y="25" width="120" height="60" as="geometry" />
        </mxCell>
        <mxCell id="9msUAY20r4PM0Jc_9Log-12" value="Selection Criteria" style="whiteSpace=wrap;html=1;fontSize=20;fontFamily=Verdana;fillColor=#FFFFFF;strokeColor=#FF3399;fontColor=#000000;rounded=1;hachureGap=4;" parent="9msUAY20r4PM0Jc_9Log-7" vertex="1">
          <mxGeometry x="210" y="25" width="120" height="60" as="geometry" />
        </mxCell>
        <mxCell id="9msUAY20r4PM0Jc_9Log-13" value="" style="edgeStyle=orthogonalEdgeStyle;rounded=0;orthogonalLoop=1;jettySize=auto;html=1;fontSize=12;endArrow=open;startSize=14;endSize=14;" parent="9msUAY20r4PM0Jc_9Log-7" source="9msUAY20r4PM0Jc_9Log-10" target="9msUAY20r4PM0Jc_9Log-12" edge="1">
          <mxGeometry relative="1" as="geometry" />
        </mxCell>
        <mxCell id="9msUAY20r4PM0Jc_9Log-15" value="" style="edgeStyle=orthogonalEdgeStyle;rounded=0;orthogonalLoop=1;jettySize=auto;html=1;fontSize=12;endArrow=open;startSize=14;endSize=14;" parent="9msUAY20r4PM0Jc_9Log-7" source="9msUAY20r4PM0Jc_9Log-12" target="9msUAY20r4PM0Jc_9Log-14" edge="1">
          <mxGeometry relative="1" as="geometry" />
        </mxCell>
        <mxCell id="9msUAY20r4PM0Jc_9Log-18" value="Receive Application for the job" style="whiteSpace=wrap;html=1;fontSize=20;fontFamily=Verdana;fillColor=#FFFFFF;strokeColor=#FF3399;fontColor=#000000;rounded=1;hachureGap=4;" parent="9msUAY20r4PM0Jc_9Log-7" vertex="1">
          <mxGeometry x="599" y="10" width="160" height="90" as="geometry" />
        </mxCell>
        <mxCell id="9msUAY20r4PM0Jc_9Log-19" value="" style="edgeStyle=orthogonalEdgeStyle;rounded=0;orthogonalLoop=1;jettySize=auto;html=1;fontSize=12;endArrow=open;startSize=14;endSize=14;" parent="9msUAY20r4PM0Jc_9Log-7" source="9msUAY20r4PM0Jc_9Log-14" target="9msUAY20r4PM0Jc_9Log-18" edge="1">
          <mxGeometry relative="1" as="geometry" />
        </mxCell>
        <mxCell id="9msUAY20r4PM0Jc_9Log-20" value="&lt;font&gt;Categories Application into A and B&lt;/font&gt;" style="rhombus;whiteSpace=wrap;html=1;fontSize=20;fontFamily=Verdana;fillColor=#FFFFFF;strokeColor=#FF3399;fontColor=#000000;rounded=1;hachureGap=4;" parent="9msUAY20r4PM0Jc_9Log-7" vertex="1">
          <mxGeometry x="594" y="135" width="170" height="180" as="geometry" />
        </mxCell>
        <mxCell id="9msUAY20r4PM0Jc_9Log-21" value="" style="edgeStyle=orthogonalEdgeStyle;rounded=0;orthogonalLoop=1;jettySize=auto;html=1;fontSize=12;endArrow=open;startSize=14;endSize=14;" parent="9msUAY20r4PM0Jc_9Log-7" source="9msUAY20r4PM0Jc_9Log-18" target="9msUAY20r4PM0Jc_9Log-20" edge="1">
          <mxGeometry relative="1" as="geometry" />
        </mxCell>
        <mxCell id="9msUAY20r4PM0Jc_9Log-22" value="A &lt;br&gt;Suitable for the Job" style="whiteSpace=wrap;html=1;fontSize=20;fontFamily=Verdana;fillColor=#FFFFFF;strokeColor=#FF3399;fontColor=#000000;rounded=1;hachureGap=4;" parent="9msUAY20r4PM0Jc_9Log-7" vertex="1">
          <mxGeometry x="350" y="175" width="150" height="100" as="geometry" />
        </mxCell>
        <mxCell id="9msUAY20r4PM0Jc_9Log-23" value="" style="edgeStyle=orthogonalEdgeStyle;rounded=0;orthogonalLoop=1;jettySize=auto;html=1;fontSize=12;endArrow=open;startSize=14;endSize=14;" parent="9msUAY20r4PM0Jc_9Log-7" source="9msUAY20r4PM0Jc_9Log-20" target="9msUAY20r4PM0Jc_9Log-22" edge="1">
          <mxGeometry relative="1" as="geometry" />
        </mxCell>
        <mxCell id="9msUAY20r4PM0Jc_9Log-41" style="edgeStyle=orthogonalEdgeStyle;rounded=0;orthogonalLoop=1;jettySize=auto;html=1;fontSize=12;fontColor=#FFFFFF;endArrow=open;startSize=14;endSize=14;" parent="9msUAY20r4PM0Jc_9Log-7" source="9msUAY20r4PM0Jc_9Log-24" target="9msUAY20r4PM0Jc_9Log-39" edge="1">
          <mxGeometry relative="1" as="geometry" />
        </mxCell>
        <mxCell id="9msUAY20r4PM0Jc_9Log-24" value="B&lt;br&gt;Unsuitable for the Job" style="whiteSpace=wrap;html=1;fontSize=20;fontFamily=Verdana;fillColor=#FFFFFF;strokeColor=#FF3399;fontColor=#000000;rounded=1;hachureGap=4;" parent="9msUAY20r4PM0Jc_9Log-7" vertex="1">
          <mxGeometry x="614" y="354" width="130" height="80" as="geometry" />
        </mxCell>
        <mxCell id="9msUAY20r4PM0Jc_9Log-25" value="" style="edgeStyle=orthogonalEdgeStyle;rounded=0;orthogonalLoop=1;jettySize=auto;html=1;fontSize=12;endArrow=open;startSize=14;endSize=14;" parent="9msUAY20r4PM0Jc_9Log-7" source="9msUAY20r4PM0Jc_9Log-20" target="9msUAY20r4PM0Jc_9Log-24" edge="1">
          <mxGeometry relative="1" as="geometry" />
        </mxCell>
        <mxCell id="9msUAY20r4PM0Jc_9Log-93" style="edgeStyle=none;rounded=0;orthogonalLoop=1;jettySize=auto;html=1;exitX=0;exitY=0.5;exitDx=0;exitDy=0;entryX=1;entryY=0.5;entryDx=0;entryDy=0;fontSize=12;fontColor=#000000;endArrow=open;startSize=14;endSize=14;" parent="9msUAY20r4PM0Jc_9Log-7" source="9msUAY20r4PM0Jc_9Log-28" target="9msUAY20r4PM0Jc_9Log-92" edge="1">
          <mxGeometry relative="1" as="geometry" />
        </mxCell>
        <mxCell id="9msUAY20r4PM0Jc_9Log-28" value="&lt;font&gt;Assess against Criteria&lt;/font&gt;" style="rhombus;whiteSpace=wrap;html=1;fontSize=20;fontFamily=Verdana;fillColor=#FFFFFF;strokeColor=#FF3399;fontColor=#000000;rounded=1;hachureGap=4;" parent="9msUAY20r4PM0Jc_9Log-7" vertex="1">
          <mxGeometry x="321.25" y="330" width="207.5" height="160" as="geometry" />
        </mxCell>
        <mxCell id="9msUAY20r4PM0Jc_9Log-29" value="" style="edgeStyle=orthogonalEdgeStyle;rounded=0;orthogonalLoop=1;jettySize=auto;html=1;fontSize=12;endArrow=open;startSize=14;endSize=14;" parent="9msUAY20r4PM0Jc_9Log-7" source="9msUAY20r4PM0Jc_9Log-22" target="9msUAY20r4PM0Jc_9Log-28" edge="1">
          <mxGeometry relative="1" as="geometry" />
        </mxCell>
        <mxCell id="9msUAY20r4PM0Jc_9Log-39" value="Send Thank you letter / Email&amp;nbsp;" style="rounded=1;whiteSpace=wrap;html=1;hachureGap=4;fontFamily=Verdana;fontSize=20;fontColor=#000000;strokeColor=#FF3399;fillColor=#FFFFFF;" parent="9msUAY20r4PM0Jc_9Log-7" vertex="1">
          <mxGeometry x="574" y="640" width="210" height="60" as="geometry" />
        </mxCell>
        <mxCell id="9msUAY20r4PM0Jc_9Log-48" value="No" style="text;html=1;strokeColor=none;fillColor=none;align=center;verticalAlign=middle;whiteSpace=wrap;rounded=0;fontSize=16;fontColor=#000000;" parent="9msUAY20r4PM0Jc_9Log-7" vertex="1">
          <mxGeometry x="505" y="480" width="60" height="30" as="geometry" />
        </mxCell>
        <mxCell id="9msUAY20r4PM0Jc_9Log-90" style="edgeStyle=none;rounded=0;orthogonalLoop=1;jettySize=auto;html=1;exitX=0.5;exitY=1;exitDx=0;exitDy=0;entryX=0.5;entryY=0;entryDx=0;entryDy=0;fontSize=12;fontColor=#000000;endArrow=open;startSize=14;endSize=14;" parent="9msUAY20r4PM0Jc_9Log-7" source="9msUAY20r4PM0Jc_9Log-57" target="9msUAY20r4PM0Jc_9Log-89" edge="1">
          <mxGeometry relative="1" as="geometry" />
        </mxCell>
        <mxCell id="9msUAY20r4PM0Jc_9Log-57" value="&lt;font&gt;Assess against Criteria&lt;/font&gt;" style="rhombus;whiteSpace=wrap;html=1;fontSize=20;fontFamily=Verdana;fillColor=#FFFFFF;strokeColor=#FF3399;fontColor=#000000;rounded=1;hachureGap=4;" parent="9msUAY20r4PM0Jc_9Log-7" vertex="1">
          <mxGeometry x="40" y="470" width="207.5" height="160" as="geometry" />
        </mxCell>
        <mxCell id="9msUAY20r4PM0Jc_9Log-81" style="edgeStyle=orthogonalEdgeStyle;rounded=0;orthogonalLoop=1;jettySize=auto;html=1;entryX=0.5;entryY=0;entryDx=0;entryDy=0;fontSize=12;fontColor=#000000;endArrow=open;startSize=14;endSize=14;exitX=0.5;exitY=1;exitDx=0;exitDy=0;" parent="9msUAY20r4PM0Jc_9Log-7" source="9msUAY20r4PM0Jc_9Log-58" target="9msUAY20r4PM0Jc_9Log-80" edge="1">
          <mxGeometry relative="1" as="geometry" />
        </mxCell>
        <mxCell id="9msUAY20r4PM0Jc_9Log-87" style="edgeStyle=none;rounded=0;orthogonalLoop=1;jettySize=auto;html=1;exitX=1;exitY=0.5;exitDx=0;exitDy=0;entryX=0;entryY=0.5;entryDx=0;entryDy=0;fontSize=12;fontColor=#000000;endArrow=open;startSize=14;endSize=14;" parent="9msUAY20r4PM0Jc_9Log-7" source="9msUAY20r4PM0Jc_9Log-58" target="9msUAY20r4PM0Jc_9Log-39" edge="1">
          <mxGeometry relative="1" as="geometry" />
        </mxCell>
        <mxCell id="9msUAY20r4PM0Jc_9Log-58" value="&lt;font&gt;Assess against Criteria&lt;/font&gt;" style="rhombus;whiteSpace=wrap;html=1;fontSize=20;fontFamily=Verdana;fillColor=#FFFFFF;strokeColor=#FF3399;fontColor=#000000;rounded=1;hachureGap=4;" parent="9msUAY20r4PM0Jc_9Log-7" vertex="1">
          <mxGeometry x="266.88" y="590" width="207.5" height="160" as="geometry" />
        </mxCell>
        <mxCell id="9msUAY20r4PM0Jc_9Log-80" value="Job Offers" style="rounded=1;whiteSpace=wrap;html=1;hachureGap=4;fontFamily=Verdana;fontSize=20;fontColor=#000000;strokeColor=#FF3399;fillColor=#FFFFFF;" parent="9msUAY20r4PM0Jc_9Log-7" vertex="1">
          <mxGeometry x="306.26" y="800" width="128.75" height="60" as="geometry" />
        </mxCell>
        <mxCell id="9msUAY20r4PM0Jc_9Log-82" value="Yes" style="text;html=1;strokeColor=none;fillColor=none;align=center;verticalAlign=middle;whiteSpace=wrap;rounded=0;fontSize=16;fontColor=#000000;" parent="9msUAY20r4PM0Jc_9Log-7" vertex="1">
          <mxGeometry x="380" y="760" width="60" height="30" as="geometry" />
        </mxCell>
        <mxCell id="9msUAY20r4PM0Jc_9Log-86" value="No" style="text;html=1;strokeColor=none;fillColor=none;align=center;verticalAlign=middle;whiteSpace=wrap;rounded=0;fontSize=16;fontColor=#000000;" parent="9msUAY20r4PM0Jc_9Log-7" vertex="1">
          <mxGeometry x="340.63" y="520" width="60" height="30" as="geometry" />
        </mxCell>
        <mxCell id="9msUAY20r4PM0Jc_9Log-88" value="No" style="text;html=1;strokeColor=none;fillColor=none;align=center;verticalAlign=middle;whiteSpace=wrap;rounded=0;fontSize=16;fontColor=#000000;" parent="9msUAY20r4PM0Jc_9Log-7" vertex="1">
          <mxGeometry x="485" y="630" width="60" height="30" as="geometry" />
        </mxCell>
        <mxCell id="9msUAY20r4PM0Jc_9Log-91" style="edgeStyle=none;rounded=0;orthogonalLoop=1;jettySize=auto;html=1;exitX=1;exitY=0.5;exitDx=0;exitDy=0;entryX=0;entryY=0.5;entryDx=0;entryDy=0;fontSize=12;fontColor=#000000;endArrow=open;startSize=14;endSize=14;" parent="9msUAY20r4PM0Jc_9Log-7" source="9msUAY20r4PM0Jc_9Log-89" target="9msUAY20r4PM0Jc_9Log-58" edge="1">
          <mxGeometry relative="1" as="geometry">
            <Array as="points">
              <mxPoint x="240" y="730" />
              <mxPoint x="240" y="670" />
            </Array>
          </mxGeometry>
        </mxCell>
        <mxCell id="9msUAY20r4PM0Jc_9Log-89" value="2nd Interview" style="whiteSpace=wrap;html=1;fontSize=20;fontFamily=Verdana;fillColor=#FFFFFF;strokeColor=#FF3399;fontColor=#000000;rounded=1;hachureGap=4;" parent="9msUAY20r4PM0Jc_9Log-7" vertex="1">
          <mxGeometry x="83.75" y="700" width="120" height="60" as="geometry" />
        </mxCell>
        <mxCell id="9msUAY20r4PM0Jc_9Log-94" style="edgeStyle=none;rounded=0;orthogonalLoop=1;jettySize=auto;html=1;exitX=0.5;exitY=1;exitDx=0;exitDy=0;fontSize=12;fontColor=#000000;endArrow=open;startSize=14;endSize=14;" parent="9msUAY20r4PM0Jc_9Log-7" source="9msUAY20r4PM0Jc_9Log-92" target="9msUAY20r4PM0Jc_9Log-57" edge="1">
          <mxGeometry relative="1" as="geometry" />
        </mxCell>
        <mxCell id="9msUAY20r4PM0Jc_9Log-92" value="Interview Candidates" style="whiteSpace=wrap;html=1;fontSize=20;fontFamily=Verdana;fillColor=#FFFFFF;strokeColor=#FF3399;fontColor=#000000;rounded=1;hachureGap=4;" parent="9msUAY20r4PM0Jc_9Log-7" vertex="1">
          <mxGeometry x="83.75" y="380" width="120" height="60" as="geometry" />
        </mxCell>
        <mxCell id="9msUAY20r4PM0Jc_9Log-95" value="Yes" style="text;html=1;strokeColor=none;fillColor=none;align=center;verticalAlign=middle;whiteSpace=wrap;rounded=0;fontSize=16;fontColor=#000000;" parent="9msUAY20r4PM0Jc_9Log-7" vertex="1">
          <mxGeometry x="150" y="650" width="60" height="30" as="geometry" />
        </mxCell>
        <mxCell id="9msUAY20r4PM0Jc_9Log-83" style="edgeStyle=orthogonalEdgeStyle;rounded=0;orthogonalLoop=1;jettySize=auto;html=1;exitX=0.5;exitY=1;exitDx=0;exitDy=0;fontSize=12;fontColor=#000000;endArrow=open;startSize=14;endSize=14;" parent="1" source="9msUAY20r4PM0Jc_9Log-28" edge="1">
          <mxGeometry relative="1" as="geometry">
            <mxPoint x="720" y="560" as="targetPoint" />
            <Array as="points">
              <mxPoint x="605" y="560" />
              <mxPoint x="830" y="560" />
            </Array>
          </mxGeometry>
        </mxCell>
        <mxCell id="9msUAY20r4PM0Jc_9Log-85" style="edgeStyle=none;rounded=0;orthogonalLoop=1;jettySize=auto;html=1;fontSize=12;fontColor=#000000;endArrow=open;startSize=14;endSize=14;" parent="1" source="9msUAY20r4PM0Jc_9Log-57" edge="1">
          <mxGeometry relative="1" as="geometry">
            <mxPoint x="720" y="600" as="targetPoint" />
          </mxGeometry>
        </mxCell>
      </root>
    </mxGraphModel>
  </diagram>
  <diagram id="DuhGzoq5kSsp5q96i74l" name="Employee">
    <mxGraphModel dx="1422" dy="713" grid="1" gridSize="10" guides="1" tooltips="1" connect="1" arrows="1" fold="1" page="1" pageScale="1" pageWidth="1654" pageHeight="2336" math="0" shadow="0">
      <root>
        <mxCell id="0" />
        <mxCell id="1" parent="0" />
        <mxCell id="evGZID4hst71x8Js8QTs-1" value="HR-Admin" style="swimlane;childLayout=stackLayout;resizeParent=1;resizeParentMax=0;horizontal=1;startSize=20;horizontalStack=0;hachureGap=4;fontFamily=Verdana;fontSize=20;strokeColor=#FF3399;fillColor=#f5f5f5;fontColor=#333333;swimlaneLine=1;" parent="1" vertex="1">
          <mxGeometry x="40" y="30" width="1460" height="980" as="geometry" />
        </mxCell>
        <mxCell id="evGZID4hst71x8Js8QTs-2" value="Employee" style="swimlane;startSize=20;horizontal=0;hachureGap=4;fontFamily=Verdana;fontSize=20;strokeColor=#667777;fillColor=#f5f5f5;swimlaneLine=0;fontColor=#333333;" parent="evGZID4hst71x8Js8QTs-1" vertex="1">
          <mxGeometry y="20" width="1460" height="960" as="geometry" />
        </mxCell>
        <mxCell id="evGZID4hst71x8Js8QTs-3" value="Start" style="rounded=1;whiteSpace=wrap;html=1;hachureGap=4;fontFamily=Verdana;fontSize=20;fontColor=#FFFFFF;strokeColor=#FF6392;fillColor=#66B2FF;" parent="evGZID4hst71x8Js8QTs-2" vertex="1">
          <mxGeometry x="50" y="10" width="120" height="60" as="geometry" />
        </mxCell>
        <mxCell id="7hdqttt4Ph28sUkXnaE3-7" style="edgeStyle=orthogonalEdgeStyle;rounded=0;orthogonalLoop=1;jettySize=auto;html=1;exitX=0.5;exitY=1;exitDx=0;exitDy=0;" parent="evGZID4hst71x8Js8QTs-2" source="evGZID4hst71x8Js8QTs-5" target="7hdqttt4Ph28sUkXnaE3-5" edge="1">
          <mxGeometry relative="1" as="geometry" />
        </mxCell>
        <mxCell id="evGZID4hst71x8Js8QTs-5" value="Select Employee" style="whiteSpace=wrap;html=1;fontSize=20;fontFamily=Verdana;fillColor=#FF3333;strokeColor=#FF6392;fontColor=#FFFFFF;rounded=1;hachureGap=4;" parent="evGZID4hst71x8Js8QTs-2" vertex="1">
          <mxGeometry x="210" y="10" width="120" height="60" as="geometry" />
        </mxCell>
        <mxCell id="evGZID4hst71x8Js8QTs-6" value="" style="edgeStyle=orthogonalEdgeStyle;rounded=0;orthogonalLoop=1;jettySize=auto;html=1;fontSize=12;endArrow=open;startSize=14;endSize=14;" parent="evGZID4hst71x8Js8QTs-2" source="evGZID4hst71x8Js8QTs-3" target="evGZID4hst71x8Js8QTs-5" edge="1">
          <mxGeometry relative="1" as="geometry" />
        </mxCell>
        <mxCell id="evGZID4hst71x8Js8QTs-8" value="Appointment" style="whiteSpace=wrap;html=1;fontSize=20;fontFamily=Verdana;fillColor=#FF3333;strokeColor=#FF6392;fontColor=#FFFFFF;rounded=1;hachureGap=4;" parent="evGZID4hst71x8Js8QTs-2" vertex="1">
          <mxGeometry x="600" y="142.5" width="160" height="65" as="geometry" />
        </mxCell>
        <mxCell id="7hdqttt4Ph28sUkXnaE3-5" value="&lt;font style=&quot;font-size: 18px;&quot;&gt;Recruit &lt;br&gt;New &lt;br&gt;Employee&lt;/font&gt;" style="rhombus;whiteSpace=wrap;html=1;fontSize=20;fontFamily=Verdana;fillColor=#FFD966;strokeColor=#FF6392;fontColor=#000000;rounded=1;hachureGap=4;" parent="evGZID4hst71x8Js8QTs-2" vertex="1">
          <mxGeometry x="190" y="95" width="160" height="160" as="geometry" />
        </mxCell>
        <mxCell id="7hdqttt4Ph28sUkXnaE3-14" style="edgeStyle=orthogonalEdgeStyle;rounded=0;orthogonalLoop=1;jettySize=auto;html=1;fontSize=18;" parent="evGZID4hst71x8Js8QTs-2" source="7hdqttt4Ph28sUkXnaE3-12" target="evGZID4hst71x8Js8QTs-8" edge="1">
          <mxGeometry relative="1" as="geometry" />
        </mxCell>
        <mxCell id="7hdqttt4Ph28sUkXnaE3-12" value="Send Offer Letter" style="whiteSpace=wrap;html=1;fontSize=20;fontFamily=Verdana;fillColor=#FF3333;strokeColor=#FF6392;fontColor=#FFFFFF;rounded=1;hachureGap=4;" parent="evGZID4hst71x8Js8QTs-2" vertex="1">
          <mxGeometry x="420" y="145" width="120" height="60" as="geometry" />
        </mxCell>
        <mxCell id="7hdqttt4Ph28sUkXnaE3-13" value="" style="edgeStyle=orthogonalEdgeStyle;rounded=0;orthogonalLoop=1;jettySize=auto;html=1;fontSize=18;" parent="evGZID4hst71x8Js8QTs-2" source="7hdqttt4Ph28sUkXnaE3-5" target="7hdqttt4Ph28sUkXnaE3-12" edge="1">
          <mxGeometry relative="1" as="geometry" />
        </mxCell>
        <mxCell id="7hdqttt4Ph28sUkXnaE3-17" value="Yes" style="text;html=1;strokeColor=none;fillColor=none;align=center;verticalAlign=middle;whiteSpace=wrap;rounded=0;fontSize=18;" parent="evGZID4hst71x8Js8QTs-2" vertex="1">
          <mxGeometry x="340" y="130" width="60" height="30" as="geometry" />
        </mxCell>
        <mxCell id="7hdqttt4Ph28sUkXnaE3-18" value="No" style="text;html=1;strokeColor=none;fillColor=none;align=center;verticalAlign=middle;whiteSpace=wrap;rounded=0;fontSize=18;" parent="evGZID4hst71x8Js8QTs-2" vertex="1">
          <mxGeometry x="210" y="290" width="60" height="30" as="geometry" />
        </mxCell>
        <mxCell id="7hdqttt4Ph28sUkXnaE3-15" value="Move Current Employee to the New Position" style="whiteSpace=wrap;html=1;fontSize=20;fontFamily=Verdana;fillColor=#FF3333;strokeColor=#FF6392;fontColor=#FFFFFF;rounded=1;hachureGap=4;" parent="evGZID4hst71x8Js8QTs-2" vertex="1">
          <mxGeometry x="140" y="340" width="260" height="60" as="geometry" />
        </mxCell>
        <mxCell id="7hdqttt4Ph28sUkXnaE3-16" value="" style="edgeStyle=orthogonalEdgeStyle;rounded=0;orthogonalLoop=1;jettySize=auto;html=1;fontSize=18;" parent="evGZID4hst71x8Js8QTs-2" source="7hdqttt4Ph28sUkXnaE3-5" target="7hdqttt4Ph28sUkXnaE3-15" edge="1">
          <mxGeometry relative="1" as="geometry" />
        </mxCell>
        <mxCell id="7hdqttt4Ph28sUkXnaE3-19" value="&lt;div&gt;New Employee&lt;/div&gt;&lt;div&gt;Documentetion&lt;/div&gt;" style="whiteSpace=wrap;html=1;fontSize=20;fontFamily=Verdana;fillColor=#FF3333;strokeColor=#FF6392;fontColor=#FFFFFF;rounded=1;hachureGap=4;" parent="evGZID4hst71x8Js8QTs-2" vertex="1">
          <mxGeometry x="830" y="145" width="190" height="60" as="geometry" />
        </mxCell>
        <mxCell id="7hdqttt4Ph28sUkXnaE3-20" value="" style="edgeStyle=orthogonalEdgeStyle;rounded=0;orthogonalLoop=1;jettySize=auto;html=1;fontSize=18;" parent="evGZID4hst71x8Js8QTs-2" source="evGZID4hst71x8Js8QTs-8" target="7hdqttt4Ph28sUkXnaE3-19" edge="1">
          <mxGeometry relative="1" as="geometry" />
        </mxCell>
        <mxCell id="7hdqttt4Ph28sUkXnaE3-23" value="Induction Process" style="whiteSpace=wrap;html=1;fontSize=20;fontFamily=Verdana;fillColor=#3399FF;strokeColor=#FF6392;fontColor=#FFFFFF;rounded=1;hachureGap=4;" parent="evGZID4hst71x8Js8QTs-2" vertex="1">
          <mxGeometry x="165" y="450" width="210" height="60" as="geometry" />
        </mxCell>
        <mxCell id="7hdqttt4Ph28sUkXnaE3-24" value="" style="edgeStyle=orthogonalEdgeStyle;rounded=0;orthogonalLoop=1;jettySize=auto;html=1;fontSize=18;" parent="evGZID4hst71x8Js8QTs-2" source="7hdqttt4Ph28sUkXnaE3-15" target="7hdqttt4Ph28sUkXnaE3-23" edge="1">
          <mxGeometry relative="1" as="geometry" />
        </mxCell>
        <mxCell id="7hdqttt4Ph28sUkXnaE3-26" value="Set Goals &amp;amp; Performance expectations&amp;nbsp;" style="whiteSpace=wrap;html=1;fontSize=20;fontFamily=Verdana;fillColor=#FF3333;strokeColor=#FF6392;fontColor=#FFFFFF;rounded=1;hachureGap=4;" parent="evGZID4hst71x8Js8QTs-2" vertex="1">
          <mxGeometry x="160" y="560" width="220" height="80" as="geometry" />
        </mxCell>
        <mxCell id="7hdqttt4Ph28sUkXnaE3-27" value="" style="edgeStyle=orthogonalEdgeStyle;rounded=0;orthogonalLoop=1;jettySize=auto;html=1;fontSize=18;" parent="evGZID4hst71x8Js8QTs-2" source="7hdqttt4Ph28sUkXnaE3-23" target="7hdqttt4Ph28sUkXnaE3-26" edge="1">
          <mxGeometry relative="1" as="geometry" />
        </mxCell>
        <mxCell id="7hdqttt4Ph28sUkXnaE3-29" value="Handover to the new Department" style="whiteSpace=wrap;html=1;fontSize=20;fontFamily=Verdana;fillColor=#FF3333;strokeColor=#FF6392;fontColor=#FFFFFF;rounded=1;hachureGap=4;" parent="evGZID4hst71x8Js8QTs-2" vertex="1">
          <mxGeometry x="1080" y="145" width="215" height="60" as="geometry" />
        </mxCell>
        <mxCell id="7hdqttt4Ph28sUkXnaE3-30" value="" style="edgeStyle=orthogonalEdgeStyle;rounded=0;orthogonalLoop=1;jettySize=auto;html=1;fontSize=18;" parent="evGZID4hst71x8Js8QTs-2" source="7hdqttt4Ph28sUkXnaE3-19" target="7hdqttt4Ph28sUkXnaE3-29" edge="1">
          <mxGeometry relative="1" as="geometry" />
        </mxCell>
        <mxCell id="7hdqttt4Ph28sUkXnaE3-33" style="edgeStyle=orthogonalEdgeStyle;rounded=0;orthogonalLoop=1;jettySize=auto;html=1;entryX=1;entryY=0.75;entryDx=0;entryDy=0;fontSize=18;" parent="evGZID4hst71x8Js8QTs-2" source="7hdqttt4Ph28sUkXnaE3-31" target="7hdqttt4Ph28sUkXnaE3-23" edge="1">
          <mxGeometry relative="1" as="geometry">
            <Array as="points">
              <mxPoint x="1188" y="495" />
            </Array>
          </mxGeometry>
        </mxCell>
        <mxCell id="7hdqttt4Ph28sUkXnaE3-31" value="Create Employee Profile" style="whiteSpace=wrap;html=1;fontSize=20;fontFamily=Verdana;fillColor=#FF3333;strokeColor=#FF6392;fontColor=#FFFFFF;rounded=1;hachureGap=4;" parent="evGZID4hst71x8Js8QTs-2" vertex="1">
          <mxGeometry x="1072.5" y="270" width="230" height="60" as="geometry" />
        </mxCell>
        <mxCell id="7hdqttt4Ph28sUkXnaE3-32" value="" style="edgeStyle=orthogonalEdgeStyle;rounded=0;orthogonalLoop=1;jettySize=auto;html=1;fontSize=18;" parent="evGZID4hst71x8Js8QTs-2" source="7hdqttt4Ph28sUkXnaE3-29" target="7hdqttt4Ph28sUkXnaE3-31" edge="1">
          <mxGeometry relative="1" as="geometry" />
        </mxCell>
        <mxCell id="7hdqttt4Ph28sUkXnaE3-34" value="Undertake Training needs analysis" style="whiteSpace=wrap;html=1;fontSize=20;fontFamily=Verdana;fillColor=#FF3333;strokeColor=#FF6392;fontColor=#FFFFFF;rounded=1;hachureGap=4;" parent="evGZID4hst71x8Js8QTs-2" vertex="1">
          <mxGeometry x="430" y="565" width="240" height="70" as="geometry" />
        </mxCell>
        <mxCell id="7hdqttt4Ph28sUkXnaE3-35" value="" style="edgeStyle=orthogonalEdgeStyle;rounded=0;orthogonalLoop=1;jettySize=auto;html=1;fontSize=18;" parent="evGZID4hst71x8Js8QTs-2" source="7hdqttt4Ph28sUkXnaE3-26" target="7hdqttt4Ph28sUkXnaE3-34" edge="1">
          <mxGeometry relative="1" as="geometry" />
        </mxCell>
        <mxCell id="7hdqttt4Ph28sUkXnaE3-45" style="edgeStyle=orthogonalEdgeStyle;rounded=0;orthogonalLoop=1;jettySize=auto;html=1;entryX=-0.019;entryY=0.639;entryDx=0;entryDy=0;entryPerimeter=0;fontSize=18;" parent="evGZID4hst71x8Js8QTs-2" source="7hdqttt4Ph28sUkXnaE3-36" target="7hdqttt4Ph28sUkXnaE3-43" edge="1">
          <mxGeometry relative="1" as="geometry">
            <Array as="points">
              <mxPoint x="790" y="751" />
            </Array>
          </mxGeometry>
        </mxCell>
        <mxCell id="7hdqttt4Ph28sUkXnaE3-48" style="edgeStyle=orthogonalEdgeStyle;rounded=0;orthogonalLoop=1;jettySize=auto;html=1;entryX=0.958;entryY=0.57;entryDx=0;entryDy=0;entryPerimeter=0;fontSize=18;" parent="evGZID4hst71x8Js8QTs-2" source="7hdqttt4Ph28sUkXnaE3-36" target="7hdqttt4Ph28sUkXnaE3-47" edge="1">
          <mxGeometry relative="1" as="geometry">
            <Array as="points">
              <mxPoint x="787" y="520" />
              <mxPoint x="1430" y="520" />
              <mxPoint x="1430" y="861" />
              <mxPoint x="1317" y="861" />
            </Array>
          </mxGeometry>
        </mxCell>
        <mxCell id="7hdqttt4Ph28sUkXnaE3-36" value="Training Required&amp;nbsp;" style="rhombus;whiteSpace=wrap;html=1;fontSize=20;fontFamily=Verdana;fillColor=#FFD966;strokeColor=#FF6392;fontColor=#000000;rounded=1;hachureGap=4;" parent="evGZID4hst71x8Js8QTs-2" vertex="1">
          <mxGeometry x="702" y="555" width="170" height="90" as="geometry" />
        </mxCell>
        <mxCell id="7hdqttt4Ph28sUkXnaE3-37" value="" style="edgeStyle=orthogonalEdgeStyle;rounded=0;orthogonalLoop=1;jettySize=auto;html=1;fontSize=18;" parent="evGZID4hst71x8Js8QTs-2" source="7hdqttt4Ph28sUkXnaE3-34" target="7hdqttt4Ph28sUkXnaE3-36" edge="1">
          <mxGeometry relative="1" as="geometry" />
        </mxCell>
        <mxCell id="7hdqttt4Ph28sUkXnaE3-38" value="Plan or Conduct individual or group training" style="whiteSpace=wrap;html=1;fontSize=20;fontFamily=Verdana;fillColor=#FF3333;strokeColor=#FF6392;fontColor=#FFFFFF;rounded=1;hachureGap=4;" parent="evGZID4hst71x8Js8QTs-2" vertex="1">
          <mxGeometry x="940" y="555" width="210" height="90" as="geometry" />
        </mxCell>
        <mxCell id="7hdqttt4Ph28sUkXnaE3-39" value="" style="edgeStyle=orthogonalEdgeStyle;rounded=0;orthogonalLoop=1;jettySize=auto;html=1;fontSize=18;" parent="evGZID4hst71x8Js8QTs-2" source="7hdqttt4Ph28sUkXnaE3-36" target="7hdqttt4Ph28sUkXnaE3-38" edge="1">
          <mxGeometry relative="1" as="geometry" />
        </mxCell>
        <mxCell id="7hdqttt4Ph28sUkXnaE3-40" value="Yes" style="text;html=1;strokeColor=none;fillColor=none;align=center;verticalAlign=middle;whiteSpace=wrap;rounded=0;fontSize=18;" parent="evGZID4hst71x8Js8QTs-2" vertex="1">
          <mxGeometry x="872" y="560" width="60" height="30" as="geometry" />
        </mxCell>
        <mxCell id="7hdqttt4Ph28sUkXnaE3-41" value="Evaluate Training Outcome" style="whiteSpace=wrap;html=1;fontSize=20;fontFamily=Verdana;fillColor=#FF3333;strokeColor=#FF6392;fontColor=#FFFFFF;rounded=1;hachureGap=4;" parent="evGZID4hst71x8Js8QTs-2" vertex="1">
          <mxGeometry x="1180" y="555" width="220" height="90" as="geometry" />
        </mxCell>
        <mxCell id="7hdqttt4Ph28sUkXnaE3-42" value="" style="edgeStyle=orthogonalEdgeStyle;rounded=0;orthogonalLoop=1;jettySize=auto;html=1;fontSize=18;" parent="evGZID4hst71x8Js8QTs-2" source="7hdqttt4Ph28sUkXnaE3-38" target="7hdqttt4Ph28sUkXnaE3-41" edge="1">
          <mxGeometry relative="1" as="geometry" />
        </mxCell>
        <mxCell id="7hdqttt4Ph28sUkXnaE3-50" style="edgeStyle=orthogonalEdgeStyle;rounded=0;orthogonalLoop=1;jettySize=auto;html=1;fontSize=18;" parent="evGZID4hst71x8Js8QTs-2" source="7hdqttt4Ph28sUkXnaE3-43" target="7hdqttt4Ph28sUkXnaE3-47" edge="1">
          <mxGeometry relative="1" as="geometry" />
        </mxCell>
        <mxCell id="7hdqttt4Ph28sUkXnaE3-43" value="Monitor Perforamance" style="whiteSpace=wrap;html=1;fontSize=20;fontFamily=Verdana;fillColor=#3399FF;strokeColor=#FF6392;fontColor=#FFFFFF;rounded=1;hachureGap=4;" parent="evGZID4hst71x8Js8QTs-2" vertex="1">
          <mxGeometry x="1180" y="700" width="220" height="80" as="geometry" />
        </mxCell>
        <mxCell id="7hdqttt4Ph28sUkXnaE3-44" value="" style="edgeStyle=orthogonalEdgeStyle;rounded=0;orthogonalLoop=1;jettySize=auto;html=1;fontSize=18;" parent="evGZID4hst71x8Js8QTs-2" source="7hdqttt4Ph28sUkXnaE3-41" target="7hdqttt4Ph28sUkXnaE3-43" edge="1">
          <mxGeometry relative="1" as="geometry" />
        </mxCell>
        <mxCell id="7hdqttt4Ph28sUkXnaE3-46" value="No" style="text;html=1;strokeColor=none;fillColor=none;align=center;verticalAlign=middle;whiteSpace=wrap;rounded=0;fontSize=18;" parent="evGZID4hst71x8Js8QTs-2" vertex="1">
          <mxGeometry x="800" y="670" width="60" height="30" as="geometry" />
        </mxCell>
        <mxCell id="7hdqttt4Ph28sUkXnaE3-47" value="Skills Received ?" style="rhombus;whiteSpace=wrap;html=1;fontSize=20;fontFamily=Verdana;fillColor=#FFD966;strokeColor=#FF6392;fontColor=#000000;rounded=1;hachureGap=4;" parent="evGZID4hst71x8Js8QTs-2" vertex="1">
          <mxGeometry x="1192.5" y="810" width="195" height="100" as="geometry" />
        </mxCell>
        <mxCell id="7hdqttt4Ph28sUkXnaE3-49" value="No" style="text;html=1;strokeColor=none;fillColor=none;align=center;verticalAlign=middle;whiteSpace=wrap;rounded=0;fontSize=18;" parent="evGZID4hst71x8Js8QTs-2" vertex="1">
          <mxGeometry x="1370" y="800" width="60" height="30" as="geometry" />
        </mxCell>
        <mxCell id="7hdqttt4Ph28sUkXnaE3-53" value="Yes" style="text;html=1;strokeColor=none;fillColor=none;align=center;verticalAlign=middle;whiteSpace=wrap;rounded=0;fontSize=18;" parent="evGZID4hst71x8Js8QTs-2" vertex="1">
          <mxGeometry x="1100" y="830" width="60" height="30" as="geometry" />
        </mxCell>
        <mxCell id="7hdqttt4Ph28sUkXnaE3-51" value="Apprase Perforamance" style="whiteSpace=wrap;html=1;fontSize=20;fontFamily=Verdana;fillColor=#FFFFFF;strokeColor=#FF6392;fontColor=#000000;rounded=1;hachureGap=4;" parent="evGZID4hst71x8Js8QTs-2" vertex="1">
          <mxGeometry x="850" y="815" width="215" height="90" as="geometry" />
        </mxCell>
        <mxCell id="7hdqttt4Ph28sUkXnaE3-52" value="" style="edgeStyle=orthogonalEdgeStyle;rounded=0;orthogonalLoop=1;jettySize=auto;html=1;fontSize=18;" parent="evGZID4hst71x8Js8QTs-2" source="7hdqttt4Ph28sUkXnaE3-47" target="7hdqttt4Ph28sUkXnaE3-51" edge="1">
          <mxGeometry relative="1" as="geometry" />
        </mxCell>
        <mxCell id="7hdqttt4Ph28sUkXnaE3-54" value="Review Reward and Strategies&amp;nbsp;" style="whiteSpace=wrap;html=1;fontSize=20;fontFamily=Verdana;fillColor=#FFFFFF;strokeColor=#FF6392;fontColor=#000000;rounded=1;hachureGap=4;" parent="evGZID4hst71x8Js8QTs-2" vertex="1">
          <mxGeometry x="510" y="815" width="212.5" height="90" as="geometry" />
        </mxCell>
        <mxCell id="7hdqttt4Ph28sUkXnaE3-55" value="" style="edgeStyle=orthogonalEdgeStyle;rounded=0;orthogonalLoop=1;jettySize=auto;html=1;fontSize=18;" parent="evGZID4hst71x8Js8QTs-2" source="7hdqttt4Ph28sUkXnaE3-51" target="7hdqttt4Ph28sUkXnaE3-54" edge="1">
          <mxGeometry relative="1" as="geometry" />
        </mxCell>
        <mxCell id="7hdqttt4Ph28sUkXnaE3-56" style="edgeStyle=orthogonalEdgeStyle;rounded=0;orthogonalLoop=1;jettySize=auto;html=1;entryX=0.5;entryY=1;entryDx=0;entryDy=0;fontSize=18;" parent="evGZID4hst71x8Js8QTs-2" source="7hdqttt4Ph28sUkXnaE3-54" target="7hdqttt4Ph28sUkXnaE3-26" edge="1">
          <mxGeometry relative="1" as="geometry" />
        </mxCell>
        <mxCell id="g9h5DRbm62s8SPaMQKLB-1" value="Start" style="rounded=1;whiteSpace=wrap;html=1;hachureGap=4;fontFamily=Verdana;fontSize=20;fontColor=#000000;strokeColor=#FF6392;fillColor=#FFFFFF;" vertex="1" parent="evGZID4hst71x8Js8QTs-2">
          <mxGeometry x="50" y="10" width="120" height="60" as="geometry" />
        </mxCell>
        <mxCell id="g9h5DRbm62s8SPaMQKLB-2" value="Select Employee" style="whiteSpace=wrap;html=1;fontSize=20;fontFamily=Verdana;fillColor=#FFFFFF;strokeColor=#FF6392;fontColor=#000000;rounded=1;hachureGap=4;" vertex="1" parent="evGZID4hst71x8Js8QTs-2">
          <mxGeometry x="210" y="10" width="120" height="60" as="geometry" />
        </mxCell>
        <mxCell id="g9h5DRbm62s8SPaMQKLB-3" value="&lt;font style=&quot;font-size: 18px;&quot;&gt;Recruit &lt;br&gt;New &lt;br&gt;Employee&lt;/font&gt;" style="rhombus;whiteSpace=wrap;html=1;fontSize=20;fontFamily=Verdana;fillColor=#FFFFFF;strokeColor=#FF6392;fontColor=#000000;rounded=1;hachureGap=4;" vertex="1" parent="evGZID4hst71x8Js8QTs-2">
          <mxGeometry x="190" y="95" width="160" height="160" as="geometry" />
        </mxCell>
        <mxCell id="g9h5DRbm62s8SPaMQKLB-4" value="Send Offer Letter" style="whiteSpace=wrap;html=1;fontSize=20;fontFamily=Verdana;fillColor=#FFFFFF;strokeColor=#FF6392;fontColor=#000000;rounded=1;hachureGap=4;" vertex="1" parent="evGZID4hst71x8Js8QTs-2">
          <mxGeometry x="420" y="145" width="120" height="60" as="geometry" />
        </mxCell>
        <mxCell id="g9h5DRbm62s8SPaMQKLB-5" value="Appointment" style="whiteSpace=wrap;html=1;fontSize=20;fontFamily=Verdana;fillColor=#FFFFFF;strokeColor=#FF6392;fontColor=#000000;rounded=1;hachureGap=4;" vertex="1" parent="evGZID4hst71x8Js8QTs-2">
          <mxGeometry x="600" y="142.5" width="160" height="65" as="geometry" />
        </mxCell>
        <mxCell id="g9h5DRbm62s8SPaMQKLB-6" value="&lt;div&gt;New Employee&lt;/div&gt;&lt;div&gt;Documentetion&lt;/div&gt;" style="whiteSpace=wrap;html=1;fontSize=20;fontFamily=Verdana;fillColor=#FFFFFF;strokeColor=#FF6392;fontColor=#000000;rounded=1;hachureGap=4;" vertex="1" parent="evGZID4hst71x8Js8QTs-2">
          <mxGeometry x="830" y="145" width="190" height="60" as="geometry" />
        </mxCell>
        <mxCell id="g9h5DRbm62s8SPaMQKLB-7" value="Handover to the new Department" style="whiteSpace=wrap;html=1;fontSize=20;fontFamily=Verdana;fillColor=#FFFFFF;strokeColor=#FF6392;fontColor=#000000;rounded=1;hachureGap=4;" vertex="1" parent="evGZID4hst71x8Js8QTs-2">
          <mxGeometry x="1080" y="145" width="215" height="60" as="geometry" />
        </mxCell>
        <mxCell id="g9h5DRbm62s8SPaMQKLB-8" value="Create Employee Profile" style="whiteSpace=wrap;html=1;fontSize=20;fontFamily=Verdana;fillColor=#FFFFFF;strokeColor=#FF6392;fontColor=#000000;rounded=1;hachureGap=4;" vertex="1" parent="evGZID4hst71x8Js8QTs-2">
          <mxGeometry x="1072.5" y="270" width="230" height="60" as="geometry" />
        </mxCell>
        <mxCell id="g9h5DRbm62s8SPaMQKLB-9" value="Move Current Employee to the New Position" style="whiteSpace=wrap;html=1;fontSize=20;fontFamily=Verdana;fillColor=#FFFFFF;strokeColor=#FF6392;fontColor=#000000;rounded=1;hachureGap=4;" vertex="1" parent="evGZID4hst71x8Js8QTs-2">
          <mxGeometry x="140" y="340" width="260" height="60" as="geometry" />
        </mxCell>
        <mxCell id="g9h5DRbm62s8SPaMQKLB-10" value="Induction Process" style="whiteSpace=wrap;html=1;fontSize=20;fontFamily=Verdana;fillColor=#FFFFFF;strokeColor=#FF6392;fontColor=#000000;rounded=1;hachureGap=4;" vertex="1" parent="evGZID4hst71x8Js8QTs-2">
          <mxGeometry x="165" y="450" width="210" height="60" as="geometry" />
        </mxCell>
        <mxCell id="g9h5DRbm62s8SPaMQKLB-11" value="Set Goals &amp;amp; Performance expectations&amp;nbsp;" style="whiteSpace=wrap;html=1;fontSize=20;fontFamily=Verdana;fillColor=#FFFFFF;strokeColor=#FF6392;fontColor=#000000;rounded=1;hachureGap=4;" vertex="1" parent="evGZID4hst71x8Js8QTs-2">
          <mxGeometry x="160" y="560" width="220" height="80" as="geometry" />
        </mxCell>
        <mxCell id="g9h5DRbm62s8SPaMQKLB-12" value="Undertake Training needs analysis" style="whiteSpace=wrap;html=1;fontSize=20;fontFamily=Verdana;fillColor=#FFFFFF;strokeColor=#FF6392;fontColor=#000000;rounded=1;hachureGap=4;" vertex="1" parent="evGZID4hst71x8Js8QTs-2">
          <mxGeometry x="430" y="565" width="240" height="70" as="geometry" />
        </mxCell>
        <mxCell id="g9h5DRbm62s8SPaMQKLB-13" value="Training Required&amp;nbsp;" style="rhombus;whiteSpace=wrap;html=1;fontSize=20;fontFamily=Verdana;fillColor=#FFFFFF;strokeColor=#FF6392;fontColor=#000000;rounded=1;hachureGap=4;" vertex="1" parent="evGZID4hst71x8Js8QTs-2">
          <mxGeometry x="702" y="555" width="170" height="90" as="geometry" />
        </mxCell>
        <mxCell id="g9h5DRbm62s8SPaMQKLB-14" value="Plan or Conduct individual or group training" style="whiteSpace=wrap;html=1;fontSize=20;fontFamily=Verdana;fillColor=#FFFFFF;strokeColor=#FF6392;fontColor=#000000;rounded=1;hachureGap=4;" vertex="1" parent="evGZID4hst71x8Js8QTs-2">
          <mxGeometry x="940" y="555" width="210" height="90" as="geometry" />
        </mxCell>
        <mxCell id="g9h5DRbm62s8SPaMQKLB-15" value="Evaluate Training Outcome" style="whiteSpace=wrap;html=1;fontSize=20;fontFamily=Verdana;fillColor=#FFFFFF;strokeColor=#FF6392;fontColor=#000000;rounded=1;hachureGap=4;" vertex="1" parent="evGZID4hst71x8Js8QTs-2">
          <mxGeometry x="1180" y="555" width="220" height="90" as="geometry" />
        </mxCell>
        <mxCell id="g9h5DRbm62s8SPaMQKLB-16" value="Monitor Perforamance" style="whiteSpace=wrap;html=1;fontSize=20;fontFamily=Verdana;fillColor=#FFFFFF;strokeColor=#FF6392;fontColor=#000000;rounded=1;hachureGap=4;" vertex="1" parent="evGZID4hst71x8Js8QTs-2">
          <mxGeometry x="1180" y="700" width="220" height="80" as="geometry" />
        </mxCell>
        <mxCell id="g9h5DRbm62s8SPaMQKLB-17" value="Skills Received ?" style="rhombus;whiteSpace=wrap;html=1;fontSize=20;fontFamily=Verdana;fillColor=#FFFFFF;strokeColor=#FF6392;fontColor=#000000;rounded=1;hachureGap=4;" vertex="1" parent="evGZID4hst71x8Js8QTs-2">
          <mxGeometry x="1192.5" y="810" width="195" height="100" as="geometry" />
        </mxCell>
      </root>
    </mxGraphModel>
  </diagram>
  <diagram id="LhX0Hmc9XZUdKVXlOBZj" name="Payroll">
    <mxGraphModel dx="1822" dy="2313" grid="0" gridSize="10" guides="1" tooltips="1" connect="1" arrows="1" fold="1" page="0" pageScale="1" pageWidth="2336" pageHeight="1654" math="0" shadow="1">
      <root>
        <mxCell id="0" />
        <mxCell id="1" parent="0" />
        <mxCell id="x7wru0jU_u8JPNTV_t0Q-1" value="Payroll Management" style="swimlane;childLayout=stackLayout;resizeParent=1;resizeParentMax=0;horizontal=1;startSize=20;horizontalStack=0;fillColor=#FFFFFF;gradientColor=none;strokeColor=#FF3399;fontColor=#000000;" parent="1" vertex="1">
          <mxGeometry x="-15" y="-1214" width="1356" height="291" as="geometry" />
        </mxCell>
        <mxCell id="x7wru0jU_u8JPNTV_t0Q-2" value="HR User" style="swimlane;startSize=20;horizontal=0;shadow=0;sketch=0;strokeColor=#d6b656;fillColor=#FFFFFF;swimlaneLine=1;labelBackgroundColor=none;labelBorderColor=none;whiteSpace=wrap;fontFamily=Times New Roman;fontStyle=1;gradientColor=none;" parent="x7wru0jU_u8JPNTV_t0Q-1" vertex="1">
          <mxGeometry y="20" width="1356" height="271" as="geometry" />
        </mxCell>
        <mxCell id="x7wru0jU_u8JPNTV_t0Q-24" style="edgeStyle=orthogonalEdgeStyle;rounded=0;orthogonalLoop=1;jettySize=auto;html=1;" parent="x7wru0jU_u8JPNTV_t0Q-2" source="x7wru0jU_u8JPNTV_t0Q-23" target="x7wru0jU_u8JPNTV_t0Q-9" edge="1">
          <mxGeometry relative="1" as="geometry" />
        </mxCell>
        <mxCell id="x7wru0jU_u8JPNTV_t0Q-23" value="Start" style="rounded=1;whiteSpace=wrap;html=1;hachureGap=4;fontFamily=Verdana;fontSize=20;fontColor=#000000;strokeColor=#FF3399;fillColor=#FFFFFF;" parent="x7wru0jU_u8JPNTV_t0Q-2" vertex="1">
          <mxGeometry x="31" y="65" width="120" height="60" as="geometry" />
        </mxCell>
        <mxCell id="x7wru0jU_u8JPNTV_t0Q-9" value="Payroll Cycle" style="rounded=1;shadow=0;sketch=0;strokeColor=#FF3399;fillColor=#FFFFFF;swimlaneLine=1;labelBackgroundColor=none;labelBorderColor=none;whiteSpace=wrap;fontFamily=Times New Roman;fontStyle=1;gradientColor=none;fontColor=#000000;" parent="x7wru0jU_u8JPNTV_t0Q-2" vertex="1">
          <mxGeometry x="195" y="65" width="120" height="60" as="geometry" />
        </mxCell>
        <mxCell id="x7wru0jU_u8JPNTV_t0Q-25" value="Complete Employee Information" style="rounded=1;shadow=0;sketch=0;strokeColor=#FF3399;fillColor=#FFFFFF;swimlaneLine=1;labelBackgroundColor=none;labelBorderColor=none;whiteSpace=wrap;fontFamily=Times New Roman;fontStyle=1;gradientColor=none;fontColor=#000000;" parent="x7wru0jU_u8JPNTV_t0Q-2" vertex="1">
          <mxGeometry x="346" y="65" width="120" height="60" as="geometry" />
        </mxCell>
        <mxCell id="x7wru0jU_u8JPNTV_t0Q-26" value="" style="edgeStyle=orthogonalEdgeStyle;rounded=0;orthogonalLoop=1;jettySize=auto;html=1;" parent="x7wru0jU_u8JPNTV_t0Q-2" source="x7wru0jU_u8JPNTV_t0Q-9" target="x7wru0jU_u8JPNTV_t0Q-25" edge="1">
          <mxGeometry relative="1" as="geometry" />
        </mxCell>
        <mxCell id="x7wru0jU_u8JPNTV_t0Q-28" value="" style="edgeStyle=orthogonalEdgeStyle;rounded=0;orthogonalLoop=1;jettySize=auto;shadow=0;sketch=0;strokeColor=#d6b656;fillColor=#fff2cc;swimlaneLine=1;labelBackgroundColor=none;labelBorderColor=none;fontFamily=Times New Roman;fontStyle=1;gradientColor=#ffd966;endArrow=none;" parent="x7wru0jU_u8JPNTV_t0Q-2" source="x7wru0jU_u8JPNTV_t0Q-9" target="x7wru0jU_u8JPNTV_t0Q-25" edge="1">
          <mxGeometry relative="1" as="geometry">
            <mxPoint x="316" y="45" as="sourcePoint" />
            <mxPoint x="922" y="1291" as="targetPoint" />
          </mxGeometry>
        </mxCell>
        <mxCell id="x7wru0jU_u8JPNTV_t0Q-38" style="edgeStyle=orthogonalEdgeStyle;rounded=0;orthogonalLoop=1;jettySize=auto;html=1;exitX=0.5;exitY=1;exitDx=0;exitDy=0;fontFamily=Times New Roman;fontSize=12;" parent="x7wru0jU_u8JPNTV_t0Q-2" source="x7wru0jU_u8JPNTV_t0Q-27" target="x7wru0jU_u8JPNTV_t0Q-32" edge="1">
          <mxGeometry relative="1" as="geometry" />
        </mxCell>
        <mxCell id="x7wru0jU_u8JPNTV_t0Q-27" value="&lt;span style=&quot;font-size: 18px;&quot;&gt;&lt;font style=&quot;font-size: 12px;&quot; face=&quot;Times New Roman&quot;&gt;&lt;b&gt;Check &lt;br&gt;Employee &lt;br&gt;Information&lt;/b&gt;&lt;/font&gt;&lt;/span&gt;" style="rhombus;whiteSpace=wrap;html=1;fontSize=20;fontFamily=Verdana;fillColor=#FFFFFF;strokeColor=#FF3399;fontColor=#000000;rounded=1;hachureGap=4;" parent="x7wru0jU_u8JPNTV_t0Q-2" vertex="1">
          <mxGeometry x="510" y="38.75" width="194" height="112.5" as="geometry" />
        </mxCell>
        <mxCell id="x7wru0jU_u8JPNTV_t0Q-31" value="" style="edgeStyle=orthogonalEdgeStyle;rounded=0;orthogonalLoop=1;jettySize=auto;shadow=0;sketch=0;strokeColor=#d6b656;fillColor=#fff2cc;swimlaneLine=1;labelBackgroundColor=none;labelBorderColor=none;fontFamily=Times New Roman;fontStyle=1;gradientColor=#ffd966;startArrow=none;endArrow=none;" parent="x7wru0jU_u8JPNTV_t0Q-2" source="x7wru0jU_u8JPNTV_t0Q-25" target="x7wru0jU_u8JPNTV_t0Q-27" edge="1">
          <mxGeometry relative="1" as="geometry">
            <mxPoint x="466" y="95" as="sourcePoint" />
            <mxPoint x="922" y="1291" as="targetPoint" />
          </mxGeometry>
        </mxCell>
        <mxCell id="x7wru0jU_u8JPNTV_t0Q-32" value="&lt;font face=&quot;Times New Roman&quot; style=&quot;font-size: 12px;&quot;&gt;&lt;b&gt;Enter Correct Information&lt;/b&gt;&lt;/font&gt;" style="whiteSpace=wrap;html=1;fontSize=20;fontFamily=Verdana;fillColor=#FFFFFF;strokeColor=#FF3399;fontColor=#000000;rounded=1;hachureGap=4;" parent="x7wru0jU_u8JPNTV_t0Q-2" vertex="1">
          <mxGeometry x="544" y="185" width="126" height="56" as="geometry" />
        </mxCell>
        <mxCell id="xCzi2vT_B1SJpU2Oy38k-10" value="Yes" style="text;html=1;strokeColor=none;fillColor=none;align=center;verticalAlign=middle;whiteSpace=wrap;rounded=0;fontSize=18;" parent="x7wru0jU_u8JPNTV_t0Q-2" vertex="1">
          <mxGeometry x="695" y="57" width="60" height="30" as="geometry" />
        </mxCell>
        <mxCell id="xCzi2vT_B1SJpU2Oy38k-11" value="No" style="text;html=1;strokeColor=none;fillColor=none;align=center;verticalAlign=middle;whiteSpace=wrap;rounded=0;fontSize=18;" parent="x7wru0jU_u8JPNTV_t0Q-2" vertex="1">
          <mxGeometry x="536" y="151.25" width="60" height="30" as="geometry" />
        </mxCell>
        <mxCell id="wmxK3yaXKTMc9kFe_-gw-65" style="edgeStyle=orthogonalEdgeStyle;rounded=0;orthogonalLoop=1;jettySize=auto;html=1;fontFamily=Times New Roman;fontSize=12;" parent="x7wru0jU_u8JPNTV_t0Q-2" source="x7wru0jU_u8JPNTV_t0Q-42" target="x7wru0jU_u8JPNTV_t0Q-44" edge="1">
          <mxGeometry relative="1" as="geometry" />
        </mxCell>
        <mxCell id="x7wru0jU_u8JPNTV_t0Q-42" value="&lt;span style=&quot;font-size: 12px;&quot;&gt;&lt;b&gt;&lt;font face=&quot;Times New Roman&quot;&gt;Enter Payroll Period Hours&lt;/font&gt;&lt;/b&gt;&lt;/span&gt;" style="whiteSpace=wrap;html=1;fontSize=20;fontFamily=Verdana;fillColor=#FFFFFF;strokeColor=#FF3399;fontColor=#000000;rounded=1;hachureGap=4;" parent="x7wru0jU_u8JPNTV_t0Q-2" vertex="1">
          <mxGeometry x="1205.5" y="65" width="120" height="60" as="geometry" />
        </mxCell>
        <mxCell id="x7wru0jU_u8JPNTV_t0Q-44" value="&lt;font style=&quot;font-size: 12px;&quot;&gt;&lt;b&gt;Reviews and Approved&amp;nbsp;&lt;/b&gt;&lt;/font&gt;" style="whiteSpace=wrap;html=1;fontSize=20;fontFamily=Verdana;fillColor=#FFFFFF;strokeColor=#FF3399;fontColor=#000000;rounded=1;hachureGap=4;" parent="x7wru0jU_u8JPNTV_t0Q-2" vertex="1">
          <mxGeometry x="1188" y="178" width="155" height="60" as="geometry" />
        </mxCell>
        <mxCell id="wmxK3yaXKTMc9kFe_-gw-69" style="edgeStyle=orthogonalEdgeStyle;rounded=0;orthogonalLoop=1;jettySize=auto;html=1;exitX=1;exitY=0.5;exitDx=0;exitDy=0;entryX=0.5;entryY=1;entryDx=0;entryDy=0;fontFamily=Times New Roman;fontSize=12;" parent="x7wru0jU_u8JPNTV_t0Q-2" source="x7wru0jU_u8JPNTV_t0Q-10" target="x7wru0jU_u8JPNTV_t0Q-4" edge="1">
          <mxGeometry relative="1" as="geometry" />
        </mxCell>
        <mxCell id="x7wru0jU_u8JPNTV_t0Q-10" value="Employee Contracts" style="rounded=1;shadow=0;sketch=0;strokeColor=#FF3399;fillColor=#FFFFFF;swimlaneLine=1;labelBackgroundColor=none;labelBorderColor=none;whiteSpace=wrap;fontFamily=Times New Roman;fontStyle=1;gradientColor=none;fontColor=#000000;" parent="x7wru0jU_u8JPNTV_t0Q-2" vertex="1">
          <mxGeometry x="773" y="178" width="120" height="60" as="geometry" />
        </mxCell>
        <mxCell id="wmxK3yaXKTMc9kFe_-gw-37" style="edgeStyle=orthogonalEdgeStyle;rounded=0;orthogonalLoop=1;jettySize=auto;html=1;entryX=0.5;entryY=0;entryDx=0;entryDy=0;fontFamily=Times New Roman;fontSize=12;" parent="x7wru0jU_u8JPNTV_t0Q-2" source="wmxK3yaXKTMc9kFe_-gw-33" target="x7wru0jU_u8JPNTV_t0Q-10" edge="1">
          <mxGeometry relative="1" as="geometry" />
        </mxCell>
        <mxCell id="wmxK3yaXKTMc9kFe_-gw-68" style="edgeStyle=orthogonalEdgeStyle;rounded=0;orthogonalLoop=1;jettySize=auto;html=1;entryX=0;entryY=0.5;entryDx=0;entryDy=0;fontFamily=Times New Roman;fontSize=12;" parent="x7wru0jU_u8JPNTV_t0Q-2" source="wmxK3yaXKTMc9kFe_-gw-33" target="x7wru0jU_u8JPNTV_t0Q-4" edge="1">
          <mxGeometry relative="1" as="geometry" />
        </mxCell>
        <mxCell id="wmxK3yaXKTMc9kFe_-gw-33" value="&lt;span style=&quot;font-family: &amp;quot;Times New Roman&amp;quot;; font-size: 12px; font-weight: 700;&quot;&gt;Employees &lt;br&gt;Salary &lt;br&gt;Structure&lt;/span&gt;" style="rhombus;whiteSpace=wrap;html=1;fontSize=20;fontFamily=Verdana;fillColor=#FFFFFF;strokeColor=#FF3399;fontColor=#000000;rounded=1;hachureGap=4;" parent="x7wru0jU_u8JPNTV_t0Q-2" vertex="1">
          <mxGeometry x="755" y="43" width="156" height="104" as="geometry" />
        </mxCell>
        <mxCell id="wmxK3yaXKTMc9kFe_-gw-34" value="" style="edgeStyle=orthogonalEdgeStyle;rounded=0;orthogonalLoop=1;jettySize=auto;html=1;fontFamily=Times New Roman;fontSize=12;" parent="x7wru0jU_u8JPNTV_t0Q-2" source="x7wru0jU_u8JPNTV_t0Q-27" target="wmxK3yaXKTMc9kFe_-gw-33" edge="1">
          <mxGeometry relative="1" as="geometry" />
        </mxCell>
        <mxCell id="wmxK3yaXKTMc9kFe_-gw-36" value="Yes" style="text;html=1;strokeColor=none;fillColor=none;align=center;verticalAlign=middle;whiteSpace=wrap;rounded=0;fontSize=18;" parent="x7wru0jU_u8JPNTV_t0Q-2" vertex="1">
          <mxGeometry x="906" y="61" width="60" height="30" as="geometry" />
        </mxCell>
        <mxCell id="wmxK3yaXKTMc9kFe_-gw-38" value="No" style="text;html=1;strokeColor=none;fillColor=none;align=center;verticalAlign=middle;whiteSpace=wrap;rounded=0;fontSize=18;" parent="x7wru0jU_u8JPNTV_t0Q-2" vertex="1">
          <mxGeometry x="755" y="141" width="60" height="30" as="geometry" />
        </mxCell>
        <mxCell id="wmxK3yaXKTMc9kFe_-gw-67" style="edgeStyle=orthogonalEdgeStyle;rounded=0;orthogonalLoop=1;jettySize=auto;html=1;entryX=0;entryY=0.5;entryDx=0;entryDy=0;fontFamily=Times New Roman;fontSize=12;" parent="x7wru0jU_u8JPNTV_t0Q-2" source="x7wru0jU_u8JPNTV_t0Q-4" target="x7wru0jU_u8JPNTV_t0Q-42" edge="1">
          <mxGeometry relative="1" as="geometry" />
        </mxCell>
        <mxCell id="x7wru0jU_u8JPNTV_t0Q-4" value="Employee Leaves Calculation" style="rounded=1;shadow=0;sketch=0;strokeColor=#FF3399;fillColor=#FFFFFF;swimlaneLine=1;labelBackgroundColor=none;labelBorderColor=none;whiteSpace=wrap;fontFamily=Times New Roman;fontStyle=1;gradientColor=none;fontColor=#000000;" parent="x7wru0jU_u8JPNTV_t0Q-2" vertex="1">
          <mxGeometry x="1002" y="65" width="120" height="60" as="geometry" />
        </mxCell>
        <mxCell id="x7wru0jU_u8JPNTV_t0Q-15" value="Payroll" style="swimlane;startSize=20;horizontal=0;shadow=0;sketch=0;strokeColor=#FF3399;fillColor=#FFFFFF;swimlaneLine=1;labelBackgroundColor=none;labelBorderColor=none;whiteSpace=wrap;fontFamily=Times New Roman;fontStyle=1;gradientColor=none;fontColor=#000000;" parent="1" vertex="1">
          <mxGeometry x="-15" y="-921" width="1355" height="578" as="geometry" />
        </mxCell>
        <mxCell id="x7wru0jU_u8JPNTV_t0Q-16" value="" style="rounded=1;shadow=0;sketch=0;strokeColor=#d6b656;fillColor=#fff2cc;swimlaneLine=1;labelBackgroundColor=none;labelBorderColor=none;whiteSpace=wrap;fontFamily=Times New Roman;fontStyle=1;gradientColor=#ffd966;" parent="x7wru0jU_u8JPNTV_t0Q-15" vertex="1">
          <mxGeometry x="532" y="259" width="120" height="60" as="geometry" />
        </mxCell>
        <mxCell id="x7wru0jU_u8JPNTV_t0Q-46" value="&lt;b style=&quot;font-size: 12px;&quot;&gt;Reviews &lt;/b&gt;&lt;span style=&quot;font-size: 12px;&quot;&gt;&lt;b&gt;Completeness&lt;/b&gt;&lt;/span&gt;&lt;b style=&quot;font-size: 12px;&quot;&gt;&amp;nbsp;&lt;/b&gt;" style="whiteSpace=wrap;html=1;fontSize=20;fontFamily=Verdana;fillColor=#FFFFFF;strokeColor=#FF3399;fontColor=#000000;rounded=1;hachureGap=4;" parent="x7wru0jU_u8JPNTV_t0Q-15" vertex="1">
          <mxGeometry x="1205.5" y="77" width="120" height="60" as="geometry" />
        </mxCell>
        <mxCell id="x7wru0jU_u8JPNTV_t0Q-50" value="&lt;font style=&quot;font-size: 12px;&quot; face=&quot;Times New Roman&quot;&gt;&lt;b&gt;All&lt;br&gt;Employee&lt;br&gt;Reported&lt;/b&gt;&lt;/font&gt;" style="rhombus;whiteSpace=wrap;html=1;fontSize=20;fontFamily=Verdana;fillColor=#FFFFFF;strokeColor=#FF3399;fontColor=#000000;rounded=1;hachureGap=4;" parent="x7wru0jU_u8JPNTV_t0Q-15" vertex="1">
          <mxGeometry x="888" y="45" width="155" height="124" as="geometry" />
        </mxCell>
        <mxCell id="x7wru0jU_u8JPNTV_t0Q-51" value="" style="edgeStyle=orthogonalEdgeStyle;rounded=0;orthogonalLoop=1;jettySize=auto;html=1;fontFamily=Times New Roman;fontSize=12;" parent="x7wru0jU_u8JPNTV_t0Q-15" source="x7wru0jU_u8JPNTV_t0Q-46" target="x7wru0jU_u8JPNTV_t0Q-50" edge="1">
          <mxGeometry relative="1" as="geometry" />
        </mxCell>
        <mxCell id="wmxK3yaXKTMc9kFe_-gw-1" value="&lt;b style=&quot;font-family: &amp;quot;Times New Roman&amp;quot;; font-size: 12px;&quot;&gt;Contracts Employee&amp;nbsp; Who did not Report Hours&lt;/b&gt;" style="whiteSpace=wrap;html=1;fontSize=20;fontFamily=Verdana;fillColor=#FFFFFF;strokeColor=#FF3399;fontColor=#000000;rounded=1;hachureGap=4;" parent="x7wru0jU_u8JPNTV_t0Q-15" vertex="1">
          <mxGeometry x="880.75" y="280" width="169.5" height="60" as="geometry" />
        </mxCell>
        <mxCell id="wmxK3yaXKTMc9kFe_-gw-2" value="" style="edgeStyle=orthogonalEdgeStyle;rounded=0;orthogonalLoop=1;jettySize=auto;html=1;fontFamily=Times New Roman;fontSize=12;" parent="x7wru0jU_u8JPNTV_t0Q-15" source="x7wru0jU_u8JPNTV_t0Q-50" target="wmxK3yaXKTMc9kFe_-gw-1" edge="1">
          <mxGeometry relative="1" as="geometry" />
        </mxCell>
        <mxCell id="wmxK3yaXKTMc9kFe_-gw-3" value="Yes" style="text;html=1;strokeColor=none;fillColor=none;align=center;verticalAlign=middle;whiteSpace=wrap;rounded=0;fontSize=18;" parent="x7wru0jU_u8JPNTV_t0Q-15" vertex="1">
          <mxGeometry x="820.75" y="74" width="60" height="30" as="geometry" />
        </mxCell>
        <mxCell id="wmxK3yaXKTMc9kFe_-gw-4" value="No" style="text;html=1;strokeColor=none;fillColor=none;align=center;verticalAlign=middle;whiteSpace=wrap;rounded=0;fontSize=18;" parent="x7wru0jU_u8JPNTV_t0Q-15" vertex="1">
          <mxGeometry x="970" y="189" width="60" height="30" as="geometry" />
        </mxCell>
        <mxCell id="wmxK3yaXKTMc9kFe_-gw-24" style="edgeStyle=orthogonalEdgeStyle;rounded=0;orthogonalLoop=1;jettySize=auto;html=1;exitX=0.5;exitY=0;exitDx=0;exitDy=0;entryX=0.51;entryY=0.01;entryDx=0;entryDy=0;entryPerimeter=0;fontFamily=Times New Roman;fontSize=12;" parent="x7wru0jU_u8JPNTV_t0Q-15" source="wmxK3yaXKTMc9kFe_-gw-6" target="wmxK3yaXKTMc9kFe_-gw-8" edge="1">
          <mxGeometry relative="1" as="geometry">
            <Array as="points">
              <mxPoint x="598" y="22" />
              <mxPoint x="427" y="22" />
            </Array>
          </mxGeometry>
        </mxCell>
        <mxCell id="wmxK3yaXKTMc9kFe_-gw-6" value="&lt;b style=&quot;font-family: &amp;quot;Times New Roman&amp;quot;; font-size: 12px;&quot;&gt;Start Review Process&lt;br&gt;&lt;/b&gt;" style="whiteSpace=wrap;html=1;fontSize=20;fontFamily=Verdana;fillColor=#FFFFFF;strokeColor=#FF3399;fontColor=#000000;rounded=1;hachureGap=4;" parent="x7wru0jU_u8JPNTV_t0Q-15" vertex="1">
          <mxGeometry x="705" y="77" width="120" height="60" as="geometry" />
        </mxCell>
        <mxCell id="wmxK3yaXKTMc9kFe_-gw-7" value="" style="edgeStyle=orthogonalEdgeStyle;rounded=0;orthogonalLoop=1;jettySize=auto;html=1;fontFamily=Times New Roman;fontSize=12;" parent="x7wru0jU_u8JPNTV_t0Q-15" source="x7wru0jU_u8JPNTV_t0Q-50" target="wmxK3yaXKTMc9kFe_-gw-6" edge="1">
          <mxGeometry relative="1" as="geometry" />
        </mxCell>
        <mxCell id="wmxK3yaXKTMc9kFe_-gw-8" value="&lt;b style=&quot;font-family: &amp;quot;Times New Roman&amp;quot;; font-size: 12px;&quot;&gt;Paid Time Off OK&lt;br&gt;&lt;/b&gt;" style="rhombus;whiteSpace=wrap;html=1;fontSize=20;fontFamily=Verdana;fillColor=#FFFFFF;strokeColor=#FF3399;fontColor=#000000;rounded=1;hachureGap=4;" parent="x7wru0jU_u8JPNTV_t0Q-15" vertex="1">
          <mxGeometry x="519" y="57" width="146" height="100" as="geometry" />
        </mxCell>
        <mxCell id="wmxK3yaXKTMc9kFe_-gw-10" value="&lt;font face=&quot;Times New Roman&quot;&gt;&lt;span style=&quot;font-size: 12px;&quot;&gt;&lt;b&gt;Overtime OK ?&lt;/b&gt;&lt;/span&gt;&lt;/font&gt;" style="rhombus;whiteSpace=wrap;html=1;fontSize=20;fontFamily=Verdana;fillColor=#FFFFFF;strokeColor=#FF3399;fontColor=#000000;rounded=1;hachureGap=4;" parent="x7wru0jU_u8JPNTV_t0Q-15" vertex="1">
          <mxGeometry x="343" y="53.5" width="128" height="107" as="geometry" />
        </mxCell>
        <mxCell id="wmxK3yaXKTMc9kFe_-gw-11" value="" style="edgeStyle=orthogonalEdgeStyle;rounded=0;orthogonalLoop=1;jettySize=auto;html=1;fontFamily=Times New Roman;fontSize=12;" parent="x7wru0jU_u8JPNTV_t0Q-15" source="wmxK3yaXKTMc9kFe_-gw-8" target="wmxK3yaXKTMc9kFe_-gw-10" edge="1">
          <mxGeometry relative="1" as="geometry" />
        </mxCell>
        <mxCell id="wmxK3yaXKTMc9kFe_-gw-12" value="Yes" style="text;html=1;strokeColor=none;fillColor=none;align=center;verticalAlign=middle;whiteSpace=wrap;rounded=0;fontSize=18;" parent="x7wru0jU_u8JPNTV_t0Q-15" vertex="1">
          <mxGeometry x="467" y="72" width="60" height="30" as="geometry" />
        </mxCell>
        <mxCell id="wmxK3yaXKTMc9kFe_-gw-15" value="Yes" style="text;html=1;strokeColor=none;fillColor=none;align=center;verticalAlign=middle;whiteSpace=wrap;rounded=0;fontSize=18;" parent="x7wru0jU_u8JPNTV_t0Q-15" vertex="1">
          <mxGeometry x="411" y="186" width="60" height="30" as="geometry" />
        </mxCell>
        <mxCell id="wmxK3yaXKTMc9kFe_-gw-18" value="Approve Payroll" style="rounded=1;shadow=0;sketch=0;strokeColor=#FF3399;fillColor=#FFFFFF;swimlaneLine=1;labelBackgroundColor=none;labelBorderColor=none;whiteSpace=wrap;fontFamily=Times New Roman;fontStyle=1;gradientColor=none;fontColor=#000000;" parent="x7wru0jU_u8JPNTV_t0Q-15" vertex="1">
          <mxGeometry x="348" y="376" width="115" height="60" as="geometry" />
        </mxCell>
        <mxCell id="wmxK3yaXKTMc9kFe_-gw-20" value="&lt;span style=&quot;font-family: &amp;quot;Times New Roman&amp;quot;; font-weight: 700;&quot;&gt;&lt;font style=&quot;font-size: 18px;&quot;&gt;Payroll Print&lt;/font&gt;&lt;/span&gt;" style="rounded=1;whiteSpace=wrap;html=1;hachureGap=4;fontFamily=Verdana;fontSize=20;fontColor=#000000;strokeColor=#FF3399;fillColor=#FFFFFF;" parent="x7wru0jU_u8JPNTV_t0Q-15" vertex="1">
          <mxGeometry x="345.5" y="495" width="120" height="60" as="geometry" />
        </mxCell>
        <mxCell id="wmxK3yaXKTMc9kFe_-gw-23" value="No" style="text;html=1;strokeColor=none;fillColor=none;align=center;verticalAlign=middle;whiteSpace=wrap;rounded=0;fontSize=18;" parent="x7wru0jU_u8JPNTV_t0Q-15" vertex="1">
          <mxGeometry x="592" y="192" width="60" height="30" as="geometry" />
        </mxCell>
        <mxCell id="wmxK3yaXKTMc9kFe_-gw-28" value="No" style="text;html=1;strokeColor=none;fillColor=none;align=center;verticalAlign=middle;whiteSpace=wrap;rounded=0;fontSize=18;" parent="x7wru0jU_u8JPNTV_t0Q-15" vertex="1">
          <mxGeometry x="303" y="74" width="60" height="30" as="geometry" />
        </mxCell>
        <mxCell id="wmxK3yaXKTMc9kFe_-gw-26" value="&lt;font face=&quot;Times New Roman&quot;&gt;&lt;span style=&quot;font-size: 12px;&quot;&gt;&lt;b&gt;Approve Overtime&lt;/b&gt;&lt;/span&gt;&lt;/font&gt;" style="whiteSpace=wrap;html=1;fontSize=20;fontFamily=Verdana;fillColor=#FFFFFF;strokeColor=#FF3399;fontColor=#000000;rounded=1;hachureGap=4;" parent="x7wru0jU_u8JPNTV_t0Q-15" vertex="1">
          <mxGeometry x="196" y="77" width="120" height="60" as="geometry" />
        </mxCell>
        <mxCell id="wmxK3yaXKTMc9kFe_-gw-27" value="" style="edgeStyle=orthogonalEdgeStyle;rounded=0;orthogonalLoop=1;jettySize=auto;html=1;fontFamily=Times New Roman;fontSize=12;" parent="x7wru0jU_u8JPNTV_t0Q-15" source="wmxK3yaXKTMc9kFe_-gw-10" target="wmxK3yaXKTMc9kFe_-gw-26" edge="1">
          <mxGeometry relative="1" as="geometry" />
        </mxCell>
        <mxCell id="x7wru0jU_u8JPNTV_t0Q-29" style="edgeStyle=orthogonalEdgeStyle;rounded=0;orthogonalLoop=1;jettySize=auto;html=1;" parent="1" source="x7wru0jU_u8JPNTV_t0Q-25" edge="1">
          <mxGeometry relative="1" as="geometry">
            <mxPoint x="502.111083984375" y="-1099" as="targetPoint" />
          </mxGeometry>
        </mxCell>
        <mxCell id="x7wru0jU_u8JPNTV_t0Q-47" value="" style="edgeStyle=orthogonalEdgeStyle;rounded=0;orthogonalLoop=1;jettySize=auto;html=1;fontFamily=Times New Roman;fontSize=12;" parent="1" source="x7wru0jU_u8JPNTV_t0Q-44" target="x7wru0jU_u8JPNTV_t0Q-46" edge="1">
          <mxGeometry relative="1" as="geometry" />
        </mxCell>
        <mxCell id="wmxK3yaXKTMc9kFe_-gw-17" value="" style="edgeStyle=orthogonalEdgeStyle;rounded=0;orthogonalLoop=1;jettySize=auto;html=1;fontFamily=Times New Roman;fontSize=12;" parent="1" source="wmxK3yaXKTMc9kFe_-gw-13" edge="1">
          <mxGeometry relative="1" as="geometry">
            <mxPoint x="392" y="-543" as="targetPoint" />
          </mxGeometry>
        </mxCell>
        <mxCell id="wmxK3yaXKTMc9kFe_-gw-13" value="&lt;span style=&quot;font-family: &amp;quot;Times New Roman&amp;quot;; font-size: 12px; font-weight: 700;&quot;&gt;Generate Payroll (Individual / Batch)&lt;/span&gt;" style="whiteSpace=wrap;html=1;fontSize=20;fontFamily=Verdana;fillColor=#FFFFFF;strokeColor=#FF3399;fontColor=#000000;rounded=1;hachureGap=4;" parent="1" vertex="1">
          <mxGeometry x="332" y="-657" width="120" height="60" as="geometry" />
        </mxCell>
        <mxCell id="wmxK3yaXKTMc9kFe_-gw-14" value="" style="edgeStyle=orthogonalEdgeStyle;rounded=0;orthogonalLoop=1;jettySize=auto;html=1;fontFamily=Times New Roman;fontSize=12;" parent="1" source="wmxK3yaXKTMc9kFe_-gw-10" target="wmxK3yaXKTMc9kFe_-gw-13" edge="1">
          <mxGeometry relative="1" as="geometry" />
        </mxCell>
        <mxCell id="wmxK3yaXKTMc9kFe_-gw-19" style="edgeStyle=orthogonalEdgeStyle;rounded=0;orthogonalLoop=1;jettySize=auto;html=1;fontFamily=Times New Roman;fontSize=12;" parent="1" source="wmxK3yaXKTMc9kFe_-gw-18" edge="1">
          <mxGeometry relative="1" as="geometry">
            <mxPoint x="390.5" y="-427.4444274902344" as="targetPoint" />
          </mxGeometry>
        </mxCell>
        <mxCell id="wmxK3yaXKTMc9kFe_-gw-31" style="edgeStyle=orthogonalEdgeStyle;rounded=0;orthogonalLoop=1;jettySize=auto;html=1;entryX=0.994;entryY=0.389;entryDx=0;entryDy=0;entryPerimeter=0;fontFamily=Times New Roman;fontSize=12;" parent="1" source="wmxK3yaXKTMc9kFe_-gw-21" target="wmxK3yaXKTMc9kFe_-gw-13" edge="1">
          <mxGeometry relative="1" as="geometry" />
        </mxCell>
        <mxCell id="wmxK3yaXKTMc9kFe_-gw-21" value="&lt;font face=&quot;Times New Roman&quot;&gt;&lt;span style=&quot;font-size: 12px;&quot;&gt;&lt;b&gt;Contracts Employee&lt;/b&gt;&lt;/span&gt;&lt;/font&gt;" style="whiteSpace=wrap;html=1;fontSize=20;fontFamily=Verdana;fillColor=#FFFFFF;strokeColor=#FF3399;fontColor=#000000;rounded=1;hachureGap=4;" parent="1" vertex="1">
          <mxGeometry x="517" y="-664" width="120" height="60" as="geometry" />
        </mxCell>
        <mxCell id="wmxK3yaXKTMc9kFe_-gw-22" value="" style="edgeStyle=orthogonalEdgeStyle;rounded=0;orthogonalLoop=1;jettySize=auto;html=1;fontFamily=Times New Roman;fontSize=12;" parent="1" source="wmxK3yaXKTMc9kFe_-gw-8" target="wmxK3yaXKTMc9kFe_-gw-21" edge="1">
          <mxGeometry relative="1" as="geometry" />
        </mxCell>
        <mxCell id="wmxK3yaXKTMc9kFe_-gw-29" style="edgeStyle=orthogonalEdgeStyle;rounded=0;orthogonalLoop=1;jettySize=auto;html=1;entryX=0;entryY=0.5;entryDx=0;entryDy=0;fontFamily=Times New Roman;fontSize=12;" parent="1" source="wmxK3yaXKTMc9kFe_-gw-26" target="wmxK3yaXKTMc9kFe_-gw-13" edge="1">
          <mxGeometry relative="1" as="geometry">
            <Array as="points">
              <mxPoint x="212" y="-627" />
            </Array>
          </mxGeometry>
        </mxCell>
      </root>
    </mxGraphModel>
  </diagram>
  <diagram id="ojjR4R5IiWqqMFZCpSJC" name="Attendance">
    <mxGraphModel dx="2591" dy="627" grid="1" gridSize="10" guides="1" tooltips="1" connect="1" arrows="1" fold="1" page="1" pageScale="1" pageWidth="1169" pageHeight="827" math="0" shadow="0">
      <root>
        <mxCell id="0" />
        <mxCell id="1" parent="0" />
        <mxCell id="YNrHCjboDGmivSY9SxeP-1" value="HR-Admin" style="swimlane;childLayout=stackLayout;resizeParent=1;resizeParentMax=0;horizontal=1;startSize=20;horizontalStack=0;hachureGap=4;fontFamily=Verdana;fontSize=20;strokeColor=#FF3399;fillColor=#f5f5f5;fontColor=#333333;swimlaneLine=1;" vertex="1" parent="1">
          <mxGeometry x="-140" y="50" width="660" height="980" as="geometry" />
        </mxCell>
        <mxCell id="YNrHCjboDGmivSY9SxeP-2" value="Attendance" style="swimlane;startSize=20;horizontal=0;hachureGap=4;fontFamily=Verdana;fontSize=20;strokeColor=#667777;fillColor=#f5f5f5;swimlaneLine=0;fontColor=#333333;" vertex="1" parent="YNrHCjboDGmivSY9SxeP-1">
          <mxGeometry y="20" width="660" height="960" as="geometry" />
        </mxCell>
        <mxCell id="YNrHCjboDGmivSY9SxeP-12" value="Yes" style="text;html=1;strokeColor=none;fillColor=none;align=center;verticalAlign=middle;whiteSpace=wrap;rounded=0;fontSize=18;" vertex="1" parent="YNrHCjboDGmivSY9SxeP-2">
          <mxGeometry x="240" y="290" width="60" height="30" as="geometry" />
        </mxCell>
        <mxCell id="YNrHCjboDGmivSY9SxeP-13" value="No" style="text;html=1;strokeColor=none;fillColor=none;align=center;verticalAlign=middle;whiteSpace=wrap;rounded=0;fontSize=18;" vertex="1" parent="YNrHCjboDGmivSY9SxeP-2">
          <mxGeometry x="420" y="180" width="60" height="30" as="geometry" />
        </mxCell>
        <mxCell id="YNrHCjboDGmivSY9SxeP-44" value="Yes" style="text;html=1;strokeColor=none;fillColor=none;align=center;verticalAlign=middle;whiteSpace=wrap;rounded=0;fontSize=18;" vertex="1" parent="YNrHCjboDGmivSY9SxeP-2">
          <mxGeometry x="240" y="434" width="60" height="30" as="geometry" />
        </mxCell>
        <mxCell id="YNrHCjboDGmivSY9SxeP-67" style="edgeStyle=orthogonalEdgeStyle;rounded=0;orthogonalLoop=1;jettySize=auto;html=1;entryX=0.5;entryY=0;entryDx=0;entryDy=0;fontColor=#000000;" edge="1" parent="YNrHCjboDGmivSY9SxeP-2" source="YNrHCjboDGmivSY9SxeP-50" target="YNrHCjboDGmivSY9SxeP-52">
          <mxGeometry relative="1" as="geometry" />
        </mxCell>
        <mxCell id="YNrHCjboDGmivSY9SxeP-50" value="Start" style="rounded=1;whiteSpace=wrap;html=1;hachureGap=4;fontFamily=Verdana;fontSize=20;fontColor=#000000;strokeColor=#FF6392;fillColor=#FFFFFF;" vertex="1" parent="YNrHCjboDGmivSY9SxeP-2">
          <mxGeometry x="250" y="20" width="120" height="60" as="geometry" />
        </mxCell>
        <mxCell id="YNrHCjboDGmivSY9SxeP-68" style="edgeStyle=orthogonalEdgeStyle;rounded=0;orthogonalLoop=1;jettySize=auto;html=1;fontColor=#000000;" edge="1" parent="YNrHCjboDGmivSY9SxeP-2" source="YNrHCjboDGmivSY9SxeP-52" target="YNrHCjboDGmivSY9SxeP-53">
          <mxGeometry relative="1" as="geometry" />
        </mxCell>
        <mxCell id="YNrHCjboDGmivSY9SxeP-69" style="edgeStyle=orthogonalEdgeStyle;rounded=0;orthogonalLoop=1;jettySize=auto;html=1;exitX=0.5;exitY=1;exitDx=0;exitDy=0;fontColor=#000000;" edge="1" parent="YNrHCjboDGmivSY9SxeP-2" source="YNrHCjboDGmivSY9SxeP-52" target="YNrHCjboDGmivSY9SxeP-62">
          <mxGeometry relative="1" as="geometry" />
        </mxCell>
        <mxCell id="YNrHCjboDGmivSY9SxeP-52" value="&lt;span style=&quot;font-size: 18px;&quot;&gt;All Ready Register&lt;/span&gt;" style="rhombus;whiteSpace=wrap;html=1;fontSize=20;fontFamily=Verdana;fillColor=#FFFFFF;strokeColor=#FF6392;fontColor=#000000;rounded=1;hachureGap=4;" vertex="1" parent="YNrHCjboDGmivSY9SxeP-2">
          <mxGeometry x="230" y="130" width="160" height="160" as="geometry" />
        </mxCell>
        <mxCell id="YNrHCjboDGmivSY9SxeP-73" style="edgeStyle=orthogonalEdgeStyle;rounded=0;orthogonalLoop=1;jettySize=auto;html=1;entryX=1;entryY=0.5;entryDx=0;entryDy=0;fontColor=#000000;" edge="1" parent="YNrHCjboDGmivSY9SxeP-2" source="YNrHCjboDGmivSY9SxeP-53" target="YNrHCjboDGmivSY9SxeP-62">
          <mxGeometry relative="1" as="geometry">
            <Array as="points">
              <mxPoint x="600" y="375" />
            </Array>
          </mxGeometry>
        </mxCell>
        <mxCell id="YNrHCjboDGmivSY9SxeP-53" value="Register" style="whiteSpace=wrap;html=1;fontSize=20;fontFamily=Verdana;fillColor=#FFFFFF;strokeColor=#FF6392;fontColor=#000000;rounded=1;hachureGap=4;" vertex="1" parent="YNrHCjboDGmivSY9SxeP-2">
          <mxGeometry x="530" y="180" width="120" height="60" as="geometry" />
        </mxCell>
        <mxCell id="YNrHCjboDGmivSY9SxeP-71" style="edgeStyle=orthogonalEdgeStyle;rounded=0;orthogonalLoop=1;jettySize=auto;html=1;exitX=0.5;exitY=1;exitDx=0;exitDy=0;fontColor=#000000;" edge="1" parent="YNrHCjboDGmivSY9SxeP-2" source="YNrHCjboDGmivSY9SxeP-59" target="YNrHCjboDGmivSY9SxeP-66">
          <mxGeometry relative="1" as="geometry" />
        </mxCell>
        <mxCell id="YNrHCjboDGmivSY9SxeP-59" value="Register Arrival Time" style="whiteSpace=wrap;html=1;fontSize=20;fontFamily=Verdana;fillColor=#FFFFFF;strokeColor=#FF6392;fontColor=#000000;rounded=1;hachureGap=4;" vertex="1" parent="YNrHCjboDGmivSY9SxeP-2">
          <mxGeometry x="205" y="510" width="210" height="60" as="geometry" />
        </mxCell>
        <mxCell id="YNrHCjboDGmivSY9SxeP-76" style="edgeStyle=orthogonalEdgeStyle;rounded=0;orthogonalLoop=1;jettySize=auto;html=1;exitX=0.5;exitY=1;exitDx=0;exitDy=0;fontColor=#000000;" edge="1" parent="YNrHCjboDGmivSY9SxeP-2" source="YNrHCjboDGmivSY9SxeP-60" target="YNrHCjboDGmivSY9SxeP-75">
          <mxGeometry relative="1" as="geometry" />
        </mxCell>
        <mxCell id="YNrHCjboDGmivSY9SxeP-60" value="Register Checkout Time" style="whiteSpace=wrap;html=1;fontSize=20;fontFamily=Verdana;fillColor=#FFFFFF;strokeColor=#FF6392;fontColor=#000000;rounded=1;hachureGap=4;" vertex="1" parent="YNrHCjboDGmivSY9SxeP-2">
          <mxGeometry x="200" y="750" width="220" height="80" as="geometry" />
        </mxCell>
        <mxCell id="YNrHCjboDGmivSY9SxeP-70" style="edgeStyle=orthogonalEdgeStyle;rounded=0;orthogonalLoop=1;jettySize=auto;html=1;exitX=0.5;exitY=1;exitDx=0;exitDy=0;fontColor=#000000;" edge="1" parent="YNrHCjboDGmivSY9SxeP-2" source="YNrHCjboDGmivSY9SxeP-62" target="YNrHCjboDGmivSY9SxeP-59">
          <mxGeometry relative="1" as="geometry" />
        </mxCell>
        <mxCell id="YNrHCjboDGmivSY9SxeP-62" value="Match ID" style="rhombus;whiteSpace=wrap;html=1;fontSize=20;fontFamily=Verdana;fillColor=#FFFFFF;strokeColor=#FF6392;fontColor=#000000;rounded=1;hachureGap=4;" vertex="1" parent="YNrHCjboDGmivSY9SxeP-2">
          <mxGeometry x="225" y="330" width="170" height="90" as="geometry" />
        </mxCell>
        <mxCell id="YNrHCjboDGmivSY9SxeP-72" style="edgeStyle=orthogonalEdgeStyle;rounded=0;orthogonalLoop=1;jettySize=auto;html=1;fontColor=#000000;" edge="1" parent="YNrHCjboDGmivSY9SxeP-2" source="YNrHCjboDGmivSY9SxeP-66" target="YNrHCjboDGmivSY9SxeP-60">
          <mxGeometry relative="1" as="geometry" />
        </mxCell>
        <mxCell id="YNrHCjboDGmivSY9SxeP-66" value="Checkout" style="rhombus;whiteSpace=wrap;html=1;fontSize=20;fontFamily=Verdana;fillColor=#FFFFFF;strokeColor=#FF6392;fontColor=#000000;rounded=1;hachureGap=4;" vertex="1" parent="YNrHCjboDGmivSY9SxeP-2">
          <mxGeometry x="212.5" y="620" width="195" height="100" as="geometry" />
        </mxCell>
        <mxCell id="YNrHCjboDGmivSY9SxeP-75" value="&lt;b&gt;&lt;font style=&quot;font-size: 14px;&quot;&gt;Stop&lt;/font&gt;&lt;/b&gt;" style="ellipse;whiteSpace=wrap;html=1;labelBorderColor=none;fontColor=#000000;strokeColor=#FF3399;fillColor=#FFFFFF;gradientColor=none;" vertex="1" parent="YNrHCjboDGmivSY9SxeP-2">
          <mxGeometry x="250" y="860" width="120" height="80" as="geometry" />
        </mxCell>
        <mxCell id="YNrHCjboDGmivSY9SxeP-74" style="edgeStyle=orthogonalEdgeStyle;rounded=0;orthogonalLoop=1;jettySize=auto;html=1;exitX=0;exitY=0.5;exitDx=0;exitDy=0;fontColor=#000000;" edge="1" parent="YNrHCjboDGmivSY9SxeP-2" source="YNrHCjboDGmivSY9SxeP-62" target="YNrHCjboDGmivSY9SxeP-75">
          <mxGeometry relative="1" as="geometry">
            <mxPoint x="-20" y="925" as="targetPoint" />
            <Array as="points">
              <mxPoint x="90" y="375" />
              <mxPoint x="90" y="900" />
            </Array>
          </mxGeometry>
        </mxCell>
        <mxCell id="YNrHCjboDGmivSY9SxeP-41" value="No" style="text;html=1;strokeColor=none;fillColor=none;align=center;verticalAlign=middle;whiteSpace=wrap;rounded=0;fontSize=18;" vertex="1" parent="YNrHCjboDGmivSY9SxeP-2">
          <mxGeometry x="230" y="580" width="60" height="30" as="geometry" />
        </mxCell>
      </root>
    </mxGraphModel>
  </diagram>
  <diagram id="ZuEZp1XxephVa-_GzJil" name="Appraisal">
    <mxGraphModel dx="2591" dy="1454" grid="1" gridSize="10" guides="1" tooltips="1" connect="1" arrows="1" fold="1" page="1" pageScale="1" pageWidth="1169" pageHeight="827" math="0" shadow="0">
      <root>
        <mxCell id="0" />
        <mxCell id="1" parent="0" />
        <mxCell id="X0LFybMisxWy7cMrCTOx-1" value="HR-Admin" style="swimlane;childLayout=stackLayout;resizeParent=1;resizeParentMax=0;horizontal=1;startSize=20;horizontalStack=0;hachureGap=4;fontFamily=Verdana;fontSize=20;strokeColor=#FF3399;fillColor=#f5f5f5;fontColor=#333333;swimlaneLine=1;" vertex="1" parent="1">
          <mxGeometry x="-140" y="-360" width="660" height="1170" as="geometry" />
        </mxCell>
        <mxCell id="X0LFybMisxWy7cMrCTOx-2" value="Appraisal" style="swimlane;startSize=20;horizontal=0;hachureGap=4;fontFamily=Verdana;fontSize=20;strokeColor=#667777;fillColor=#f5f5f5;swimlaneLine=0;fontColor=#333333;" vertex="1" parent="X0LFybMisxWy7cMrCTOx-1">
          <mxGeometry y="20" width="660" height="1150" as="geometry" />
        </mxCell>
        <mxCell id="X0LFybMisxWy7cMrCTOx-3" value="Yes" style="text;html=1;strokeColor=none;fillColor=none;align=center;verticalAlign=middle;whiteSpace=wrap;rounded=0;fontSize=18;" vertex="1" parent="X0LFybMisxWy7cMrCTOx-2">
          <mxGeometry x="240" y="290" width="60" height="30" as="geometry" />
        </mxCell>
        <mxCell id="X0LFybMisxWy7cMrCTOx-4" value="No" style="text;html=1;strokeColor=none;fillColor=none;align=center;verticalAlign=middle;whiteSpace=wrap;rounded=0;fontSize=18;" vertex="1" parent="X0LFybMisxWy7cMrCTOx-2">
          <mxGeometry x="420" y="180" width="60" height="30" as="geometry" />
        </mxCell>
        <mxCell id="X0LFybMisxWy7cMrCTOx-5" value="Yes" style="text;html=1;strokeColor=none;fillColor=none;align=center;verticalAlign=middle;whiteSpace=wrap;rounded=0;fontSize=18;" vertex="1" parent="X0LFybMisxWy7cMrCTOx-2">
          <mxGeometry x="225" y="390" width="60" height="30" as="geometry" />
        </mxCell>
        <mxCell id="X0LFybMisxWy7cMrCTOx-6" style="edgeStyle=orthogonalEdgeStyle;rounded=0;orthogonalLoop=1;jettySize=auto;html=1;entryX=0.5;entryY=0;entryDx=0;entryDy=0;fontColor=#000000;" edge="1" parent="X0LFybMisxWy7cMrCTOx-2" target="X0LFybMisxWy7cMrCTOx-10">
          <mxGeometry relative="1" as="geometry">
            <mxPoint x="310" y="130" as="sourcePoint" />
          </mxGeometry>
        </mxCell>
        <mxCell id="X0LFybMisxWy7cMrCTOx-7" value="Start" style="rounded=1;whiteSpace=wrap;html=1;hachureGap=4;fontFamily=Verdana;fontSize=20;fontColor=#000000;strokeColor=#FF6392;fillColor=#FFFFFF;" vertex="1" parent="X0LFybMisxWy7cMrCTOx-2">
          <mxGeometry x="250" y="20" width="120" height="60" as="geometry" />
        </mxCell>
        <mxCell id="X0LFybMisxWy7cMrCTOx-9" style="edgeStyle=orthogonalEdgeStyle;rounded=0;orthogonalLoop=1;jettySize=auto;html=1;exitX=0.5;exitY=1;exitDx=0;exitDy=0;fontColor=#000000;" edge="1" parent="X0LFybMisxWy7cMrCTOx-2" source="X0LFybMisxWy7cMrCTOx-10" target="X0LFybMisxWy7cMrCTOx-18">
          <mxGeometry relative="1" as="geometry" />
        </mxCell>
        <mxCell id="X0LFybMisxWy7cMrCTOx-32" style="edgeStyle=orthogonalEdgeStyle;rounded=0;orthogonalLoop=1;jettySize=auto;html=1;entryX=1;entryY=0.5;entryDx=0;entryDy=0;fontSize=14;fontColor=#000000;" edge="1" parent="X0LFybMisxWy7cMrCTOx-2" source="X0LFybMisxWy7cMrCTOx-10" target="X0LFybMisxWy7cMrCTOx-7">
          <mxGeometry relative="1" as="geometry">
            <Array as="points">
              <mxPoint x="560" y="305" />
              <mxPoint x="560" y="50" />
            </Array>
          </mxGeometry>
        </mxCell>
        <mxCell id="X0LFybMisxWy7cMrCTOx-10" value="&lt;span style=&quot;font-size: 18px;&quot;&gt;Approved&lt;/span&gt;" style="rhombus;whiteSpace=wrap;html=1;fontSize=20;fontFamily=Verdana;fillColor=#FFFFFF;strokeColor=#FF6392;fontColor=#000000;rounded=1;hachureGap=4;" vertex="1" parent="X0LFybMisxWy7cMrCTOx-2">
          <mxGeometry x="230" y="225" width="160" height="160" as="geometry" />
        </mxCell>
        <mxCell id="X0LFybMisxWy7cMrCTOx-13" style="edgeStyle=orthogonalEdgeStyle;rounded=0;orthogonalLoop=1;jettySize=auto;html=1;exitX=0.5;exitY=1;exitDx=0;exitDy=0;fontColor=#000000;" edge="1" parent="X0LFybMisxWy7cMrCTOx-2" source="X0LFybMisxWy7cMrCTOx-14" target="X0LFybMisxWy7cMrCTOx-20">
          <mxGeometry relative="1" as="geometry" />
        </mxCell>
        <mxCell id="X0LFybMisxWy7cMrCTOx-14" value="FeedBack" style="whiteSpace=wrap;html=1;fontSize=20;fontFamily=Verdana;fillColor=#FFFFFF;strokeColor=#FF6392;fontColor=#000000;rounded=1;hachureGap=4;" vertex="1" parent="X0LFybMisxWy7cMrCTOx-2">
          <mxGeometry x="205" y="590" width="210" height="60" as="geometry" />
        </mxCell>
        <mxCell id="X0LFybMisxWy7cMrCTOx-16" value="Approve" style="whiteSpace=wrap;html=1;fontSize=20;fontFamily=Verdana;fillColor=#FFFFFF;strokeColor=#FF6392;fontColor=#000000;rounded=1;hachureGap=4;" vertex="1" parent="X0LFybMisxWy7cMrCTOx-2">
          <mxGeometry x="200" y="850" width="220" height="80" as="geometry" />
        </mxCell>
        <mxCell id="X0LFybMisxWy7cMrCTOx-17" style="edgeStyle=orthogonalEdgeStyle;rounded=0;orthogonalLoop=1;jettySize=auto;html=1;exitX=0.5;exitY=1;exitDx=0;exitDy=0;fontColor=#000000;" edge="1" parent="X0LFybMisxWy7cMrCTOx-2" source="X0LFybMisxWy7cMrCTOx-18" target="X0LFybMisxWy7cMrCTOx-14">
          <mxGeometry relative="1" as="geometry" />
        </mxCell>
        <mxCell id="X0LFybMisxWy7cMrCTOx-18" value="Match ID" style="rhombus;whiteSpace=wrap;html=1;fontSize=20;fontFamily=Verdana;fillColor=#FFFFFF;strokeColor=#FF6392;fontColor=#000000;rounded=1;hachureGap=4;" vertex="1" parent="X0LFybMisxWy7cMrCTOx-2">
          <mxGeometry x="225" y="430" width="170" height="90" as="geometry" />
        </mxCell>
        <mxCell id="X0LFybMisxWy7cMrCTOx-19" style="edgeStyle=orthogonalEdgeStyle;rounded=0;orthogonalLoop=1;jettySize=auto;html=1;fontColor=#000000;" edge="1" parent="X0LFybMisxWy7cMrCTOx-2" source="X0LFybMisxWy7cMrCTOx-20" target="X0LFybMisxWy7cMrCTOx-16">
          <mxGeometry relative="1" as="geometry" />
        </mxCell>
        <mxCell id="X0LFybMisxWy7cMrCTOx-20" value="Performance Mesure" style="rhombus;whiteSpace=wrap;html=1;fontSize=20;fontFamily=Verdana;fillColor=#FFFFFF;strokeColor=#FF6392;fontColor=#000000;rounded=1;hachureGap=4;" vertex="1" parent="X0LFybMisxWy7cMrCTOx-2">
          <mxGeometry x="212.5" y="720" width="195" height="100" as="geometry" />
        </mxCell>
        <mxCell id="X0LFybMisxWy7cMrCTOx-21" value="&lt;b&gt;&lt;font style=&quot;font-size: 14px;&quot;&gt;Stop&lt;/font&gt;&lt;/b&gt;" style="ellipse;whiteSpace=wrap;html=1;labelBorderColor=none;fontColor=#000000;strokeColor=#FF3399;fillColor=#FFFFFF;gradientColor=none;" vertex="1" parent="X0LFybMisxWy7cMrCTOx-2">
          <mxGeometry x="250" y="1060" width="120" height="80" as="geometry" />
        </mxCell>
        <mxCell id="X0LFybMisxWy7cMrCTOx-26" value="Deadline" style="rounded=1;whiteSpace=wrap;html=1;hachureGap=4;fontFamily=Verdana;fontSize=20;fontColor=#000000;strokeColor=#FF6392;fillColor=#FFFFFF;" vertex="1" parent="X0LFybMisxWy7cMrCTOx-2">
          <mxGeometry x="250" y="120" width="120" height="60" as="geometry" />
        </mxCell>
        <mxCell id="X0LFybMisxWy7cMrCTOx-27" value="" style="edgeStyle=orthogonalEdgeStyle;rounded=0;orthogonalLoop=1;jettySize=auto;html=1;fontSize=14;fontColor=#000000;" edge="1" parent="X0LFybMisxWy7cMrCTOx-2" source="X0LFybMisxWy7cMrCTOx-7" target="X0LFybMisxWy7cMrCTOx-26">
          <mxGeometry relative="1" as="geometry" />
        </mxCell>
        <mxCell id="X0LFybMisxWy7cMrCTOx-33" style="edgeStyle=orthogonalEdgeStyle;rounded=0;orthogonalLoop=1;jettySize=auto;html=1;exitX=0.5;exitY=1;exitDx=0;exitDy=0;entryX=1;entryY=0.606;entryDx=0;entryDy=0;entryPerimeter=0;fontSize=14;fontColor=#000000;" edge="1" parent="X0LFybMisxWy7cMrCTOx-2" source="X0LFybMisxWy7cMrCTOx-28" target="X0LFybMisxWy7cMrCTOx-21">
          <mxGeometry relative="1" as="geometry" />
        </mxCell>
        <mxCell id="X0LFybMisxWy7cMrCTOx-28" value="Refuse" style="whiteSpace=wrap;html=1;fontSize=20;fontFamily=Verdana;fillColor=#FFFFFF;strokeColor=#FF6392;fontColor=#000000;rounded=1;hachureGap=4;" vertex="1" parent="X0LFybMisxWy7cMrCTOx-2">
          <mxGeometry x="500" y="740" width="120" height="60" as="geometry" />
        </mxCell>
        <mxCell id="X0LFybMisxWy7cMrCTOx-29" value="" style="edgeStyle=orthogonalEdgeStyle;rounded=0;orthogonalLoop=1;jettySize=auto;html=1;fontSize=14;fontColor=#000000;" edge="1" parent="X0LFybMisxWy7cMrCTOx-2" source="X0LFybMisxWy7cMrCTOx-20" target="X0LFybMisxWy7cMrCTOx-28">
          <mxGeometry relative="1" as="geometry" />
        </mxCell>
        <mxCell id="X0LFybMisxWy7cMrCTOx-38" style="edgeStyle=orthogonalEdgeStyle;rounded=0;orthogonalLoop=1;jettySize=auto;html=1;entryX=0.5;entryY=0;entryDx=0;entryDy=0;fontSize=14;fontColor=#000000;" edge="1" parent="X0LFybMisxWy7cMrCTOx-2" source="X0LFybMisxWy7cMrCTOx-36" target="X0LFybMisxWy7cMrCTOx-21">
          <mxGeometry relative="1" as="geometry" />
        </mxCell>
        <mxCell id="X0LFybMisxWy7cMrCTOx-36" value="&lt;span style=&quot;color: rgb(51, 51, 51); font-weight: 700; background-color: rgb(245, 245, 245);&quot;&gt;Appraisal ON&lt;/span&gt;" style="whiteSpace=wrap;html=1;fontSize=20;fontFamily=Verdana;fillColor=#FFFFFF;strokeColor=#FF6392;fontColor=#000000;rounded=1;hachureGap=4;" vertex="1" parent="X0LFybMisxWy7cMrCTOx-2">
          <mxGeometry x="200" y="960" width="220" height="50" as="geometry" />
        </mxCell>
        <mxCell id="X0LFybMisxWy7cMrCTOx-37" value="" style="edgeStyle=orthogonalEdgeStyle;rounded=0;orthogonalLoop=1;jettySize=auto;html=1;fontSize=14;fontColor=#000000;" edge="1" parent="X0LFybMisxWy7cMrCTOx-2" source="X0LFybMisxWy7cMrCTOx-16" target="X0LFybMisxWy7cMrCTOx-36">
          <mxGeometry relative="1" as="geometry" />
        </mxCell>
      </root>
    </mxGraphModel>
  </diagram>
</mxfile>
